<svg width="226" height="49" viewBox="0 0 226 49" fill="none" xmlns="http://www.w3.org/2000/svg">
<rect x="0.0975342" y="0.874023" width="225" height="48" rx="24" fill="#AF52DE" fill-opacity="0.15"/>
<path d="M96.0977 17.374H86.0977C84.431 17.374 83.5977 18.2074 83.5977 19.874V29.874C83.5977 31.5407 84.431 32.374 86.0977 32.374H96.0977C97.7643 32.374 98.5977 31.5407 98.5977 29.874V19.874C98.5977 18.2074 97.7643 17.374 96.0977 17.374ZM88.0643 28.999C87.8893 29.299 87.506 29.4074 87.206 29.2324C86.906 29.0574 86.806 28.674 86.9726 28.374L87.4227 27.599C87.931 27.4407 88.3393 27.5657 88.6643 27.9574L88.0643 29.0073V28.999ZM92.406 27.299H86.7227C86.3727 27.299 86.0977 27.0157 86.0977 26.6657C86.0977 26.3157 86.3727 26.0324 86.7227 26.0324H88.3143L90.356 22.474L89.7226 21.3574C89.5476 21.0574 89.656 20.674 89.956 20.499C90.256 20.324 90.6393 20.424 90.8143 20.7324L91.0893 21.2157L91.3643 20.7324C91.5393 20.4324 91.9226 20.324 92.2226 20.499C92.5226 20.674 92.6227 21.0574 92.456 21.3574L89.7726 26.024H91.7143C92.3393 26.024 92.6977 26.7657 92.4227 27.2824L92.406 27.299ZM95.4727 27.299H94.5726L95.181 28.3657C95.356 28.6657 95.2477 29.049 94.9477 29.224C94.6477 29.399 94.2643 29.299 94.0893 28.9907C93.0643 27.199 92.2893 25.8573 91.781 24.9657C91.256 24.0573 91.631 23.1407 91.9977 22.8323C92.406 23.5407 93.0226 24.6074 93.8393 26.0407H95.4643C95.8143 26.0407 96.0893 26.324 96.0893 26.674C96.0893 27.024 95.8143 27.3074 95.4643 27.3074L95.4727 27.299Z" fill="#AF52DE"/>
</svg>
