<svg width="226" height="49" viewBox="0 0 226 49" fill="none" xmlns="http://www.w3.org/2000/svg">
<rect x="0.0975342" y="0.874023" width="225" height="48" rx="24" fill="#007AFF" fill-opacity="0.15"/>
<path d="M88.1558 26.149C87.9117 25.9049 87.9117 25.509 88.1558 25.2649C88.4 25.0207 88.7959 25.0207 89.04 25.2649L90.4733 26.6982V17.374C90.4733 17.029 90.7533 16.749 91.0983 16.749C91.4433 16.749 91.7233 17.029 91.7233 17.374V26.6982L93.1567 25.2649C93.4008 25.0207 93.7967 25.0207 94.0409 25.2649C94.285 25.509 94.285 25.9049 94.0409 26.149L91.5409 28.649C91.4834 28.7065 91.4143 28.7524 91.3376 28.784C91.2609 28.8157 91.18 28.8324 91.0983 28.8324C91.0167 28.8324 90.936 28.8157 90.8593 28.784C90.7826 28.7524 90.7133 28.7065 90.6558 28.649L88.1558 26.149ZM96.0975 22.5824C95.7525 22.5824 95.4725 22.8624 95.4725 23.2074C95.4725 23.5524 95.7525 23.8324 96.0975 23.8324C97.4117 23.8324 97.9725 24.3932 97.9725 25.7074V29.874C97.9725 31.1882 97.4117 31.749 96.0975 31.749H86.0975C84.7834 31.749 84.2225 31.1882 84.2225 29.874V25.7074C84.2225 24.3932 84.7834 23.8324 86.0975 23.8324C86.4425 23.8324 86.7225 23.5524 86.7225 23.2074C86.7225 22.8624 86.4425 22.5824 86.0975 22.5824C84.0825 22.5824 82.9725 23.6924 82.9725 25.7074V29.874C82.9725 31.889 84.0825 32.999 86.0975 32.999H96.0975C98.1125 32.999 99.2225 31.889 99.2225 29.874V25.7074C99.2225 23.6924 98.1125 22.5824 96.0975 22.5824Z" fill="#007AFF"/>
</svg>
