<svg width="226" height="49" viewBox="0 0 226 49" fill="none" xmlns="http://www.w3.org/2000/svg">
<rect x="0.0975342" y="0.874023" width="225" height="48" rx="24" fill="#00FF3F" fill-opacity="0.15"/>
<path d="M90.1893 24.8739L84.4561 30.3656V19.3906L90.1893 24.8739ZM91.0894 24.0073L93.8644 21.3489L87.1227 17.6489C86.8643 17.4822 86.531 17.3989 86.1894 17.3989C85.6477 17.3989 85.1477 17.6406 84.8227 18.0156L91.081 24.0073H91.0894ZM91.0894 25.7406L84.8144 31.7489C85.1394 32.1406 85.631 32.3989 86.1894 32.3989C86.531 32.3989 86.8227 32.3156 87.081 32.1489L93.906 28.4323L91.0894 25.7323V25.7406ZM97.6477 23.4239L95.0144 21.9823L91.9894 24.8739L95.056 27.8073L97.6811 26.3739C98.2311 26.0906 98.6144 25.5156 98.6144 24.8989C98.5727 24.2823 98.1893 23.7073 97.6393 23.4239H97.6477Z" fill="#34C759"/>
</svg>
