<svg width="91" height="94" viewBox="0 0 91 94" fill="none" xmlns="http://www.w3.org/2000/svg">
<path d="M45.4999 45.3085C43.4999 45.3085 41.4999 44.5481 39.979 43.0252L39.0605 42.1065C38.7688 41.8148 38.3666 41.6481 37.9562 41.6481H36.6625C32.3584 41.6481 28.8541 38.1461 28.8541 33.8398V32.5461C28.8541 32.1356 28.6875 31.7315 28.3958 31.4419L27.477 30.5231C24.4312 27.4794 24.4312 22.5252 27.477 19.4794L28.3958 18.5606C28.6875 18.269 28.8541 17.8669 28.8541 17.4544V16.1606C28.8541 11.8544 32.3584 8.3523 36.6625 8.3523H37.9562C38.3666 8.3523 38.7709 8.18563 39.0605 7.89397L39.979 6.9752C43.0228 3.93145 47.9791 3.93145 51.0228 6.9752L51.9417 7.89397C52.2333 8.18563 52.6352 8.3523 53.0456 8.3523H54.3396C58.6438 8.3523 62.1478 11.8544 62.1478 16.1606V17.4544C62.1478 17.8669 62.3146 18.269 62.6063 18.5606L63.5249 19.4794C66.5707 22.5231 66.5707 27.4773 63.5249 30.5231L62.6063 31.4419C62.3146 31.7336 62.1478 32.1356 62.1478 32.5461V33.8398C62.1478 38.1461 58.6438 41.6481 54.3396 41.6481H53.0456C52.6352 41.6481 52.2313 41.8148 51.9417 42.1044L51.0228 43.0252C49.4999 44.5481 47.4999 45.3085 45.4999 45.3085ZM36.6603 11.4773C34.079 11.4773 31.9771 13.5794 31.9771 16.1606V17.4544C31.9771 18.7064 31.4895 19.8835 30.604 20.7689L29.6855 21.6877C28.8 22.5731 28.3145 23.7481 28.3145 25.0002C28.3145 26.2523 28.8 27.4273 29.6855 28.3127L30.604 29.2315C31.4895 30.1169 31.9771 31.294 31.9771 32.5461V33.8398C31.9771 36.4232 34.079 38.5231 36.6603 38.5231H37.9542C39.1896 38.5231 40.3978 39.0231 41.2687 39.896L42.1875 40.8148C43.9583 42.5836 47.0415 42.5836 48.8124 40.8148L49.7312 39.896C50.602 39.0231 51.8102 38.5231 53.0456 38.5231H54.3396C56.9208 38.5231 59.0228 36.4211 59.0228 33.8398V32.5461C59.0228 31.294 59.5104 30.1169 60.3958 29.2315L61.3144 28.3127C62.1998 27.4273 62.6854 26.2523 62.6854 25.0002C62.6854 23.7481 62.1998 22.5731 61.3144 21.6877L60.3958 20.7689C59.5104 19.8835 59.0228 18.7064 59.0228 17.4544V16.1606C59.0228 13.5773 56.9208 11.4773 54.3396 11.4773H53.0456C51.8123 11.4773 50.6041 10.9773 49.7312 10.1044L48.8124 9.18562C47.0415 7.41687 43.9583 7.41687 42.1875 9.18562L41.2687 10.1044C40.3957 10.9773 39.1875 11.4773 37.9542 11.4773H36.6603ZM44.5208 30.271L52.8542 21.9377C53.4646 21.3273 53.4646 20.3377 52.8542 19.7273C52.2437 19.1169 51.2541 19.1169 50.6437 19.7273L43.4146 26.9565L40.3521 23.8939C39.7417 23.2835 38.752 23.2835 38.1416 23.8939C37.5312 24.5044 37.5312 25.494 38.1416 26.1044L42.3083 30.271C42.6125 30.5752 43.0125 30.7294 43.4125 30.7294C43.8125 30.7294 44.2167 30.5773 44.5208 30.271Z" fill="#48484A"/>
<path d="M8.40988 74.864C8.58054 76.208 8.70321 77.3227 8.77788 78.208C8.86321 79.0827 8.90588 79.968 8.90588 80.864C8.90588 81.2587 8.90054 81.552 8.88988 81.744C8.83654 83.248 8.23388 84.3733 7.08188 85.12C5.92988 85.856 4.42054 86.3093 2.55388 86.48L2.20188 85.072C2.55388 85.04 3.03388 84.9707 3.64188 84.864C3.70588 84.6187 3.73788 84.336 3.73788 84.016C3.73788 83.184 3.54588 82.144 3.16188 80.896C2.78854 79.648 2.30854 78.3413 1.72188 76.976L2.80988 76.256C3.48188 77.7067 4.00988 79.0933 4.39388 80.416C4.77788 81.728 4.96988 82.8427 4.96988 83.76C4.96988 84.0693 4.94854 84.3307 4.90588 84.544C6.70854 83.9787 7.60988 83.0453 7.60988 81.744C7.60988 80.688 7.57254 79.68 7.49788 78.72C7.42321 77.7493 7.30054 76.5547 7.12988 75.136L8.40988 74.864ZM14.0083 86C13.2509 86 12.6589 85.8773 12.2323 85.632C11.8056 85.376 11.5016 84.9973 11.3203 84.496C11.1496 83.9947 11.0643 83.3333 11.0643 82.512C11.0643 81.296 11.0376 79.92 10.9843 78.384C10.9416 76.8373 10.8723 75.7547 10.7763 75.136L12.0563 74.864C12.1416 75.408 12.2056 76.3627 12.2483 77.728C12.3016 79.0827 12.3283 80.3147 12.3283 81.424V82.096L12.3123 82.656C12.3123 83.1573 12.3549 83.5413 12.4403 83.808C12.5256 84.064 12.6856 84.256 12.9203 84.384C13.1656 84.5013 13.5283 84.56 14.0083 84.56H14.0883L14.1683 85.28L14.0883 86H14.0083ZM13.7325 84.56H14.1325C16.6818 84.56 17.9565 84.032 17.9565 82.976C17.9565 82.432 17.6525 81.7653 17.0445 80.976C16.4472 80.1867 15.6098 79.3547 14.5325 78.48L14.7085 77.12L20.5485 74.592L20.9645 75.776L15.9565 77.952C16.8098 78.6773 17.5618 79.5147 18.2125 80.464C18.8738 81.4027 19.2045 82.2773 19.2045 83.088C19.2045 83.3653 19.1565 83.632 19.0605 83.888C18.8045 84.6027 18.2552 85.136 17.4125 85.488C16.5698 85.8293 15.4765 86 14.1325 86H13.7325V84.56ZM27.7848 82.096C27.1874 83.3547 26.8888 84.4533 26.8888 85.392C26.8888 86.4053 27.1874 87.1787 27.7848 87.712C28.3821 88.2453 29.2408 88.512 30.3608 88.512C31.2248 88.512 31.9448 88.352 32.5208 88.032C33.1074 87.7227 33.5394 87.3227 33.8168 86.832C34.0941 86.352 34.2328 85.8453 34.2328 85.312C34.2328 84.4267 33.9394 83.0933 33.3528 81.312L34.5368 80.768C34.8461 81.7493 35.0754 82.5973 35.2248 83.312C35.3741 84.016 35.4488 84.6827 35.4488 85.312C35.4488 86.08 35.2461 86.8213 34.8408 87.536C34.4461 88.2507 33.8648 88.832 33.0968 89.28C32.3288 89.728 31.4168 89.952 30.3608 89.952C29.3474 89.952 28.4834 89.7493 27.7688 89.344C27.0648 88.9387 26.5314 88.4 26.1688 87.728C25.8168 87.056 25.6408 86.32 25.6408 85.52C25.6408 84.88 25.7474 84.208 25.9608 83.504C26.1741 82.8 26.4194 82.16 26.6968 81.584L27.7848 82.096ZM30.7128 79.888L31.8488 81.024L30.7128 82.16L29.5768 81.024L30.7128 79.888ZM40.189 86.048C39.3463 86.048 38.6263 85.936 38.029 85.712C37.4317 85.4773 36.957 85.2107 36.605 84.912L37.229 83.856C37.2717 83.8773 37.4263 83.968 37.693 84.128C37.9703 84.2773 38.317 84.4053 38.733 84.512C39.1597 84.6187 39.6077 84.672 40.077 84.672C40.653 84.672 41.1223 84.592 41.485 84.432C41.8583 84.2613 42.0983 84.0747 42.205 83.872C42.2583 83.744 42.285 83.6107 42.285 83.472C42.285 82.9707 42.0077 82.352 41.453 81.616C40.909 80.8693 40.077 80.0853 38.957 79.264L39.677 78.016C40.861 78.912 41.7837 79.84 42.445 80.8C43.117 81.7493 43.453 82.64 43.453 83.472C43.453 83.856 43.3837 84.2027 43.245 84.512C43.0317 85.0027 42.6477 85.3813 42.093 85.648C41.5383 85.9147 40.9037 86.048 40.189 86.048ZM44.5894 89.312C46.104 88.9813 47.2667 88.544 48.0774 88C48.8987 87.4667 49.3894 86.8053 49.5494 86.016C48.3974 86.0267 47.4587 85.9467 46.7334 85.776C46.008 85.5947 45.5067 85.2267 45.2294 84.672C45.0587 84.3307 44.9734 83.9307 44.9734 83.472C44.9734 82.9173 45.0907 82.3627 45.3254 81.808C45.5707 81.2533 45.8907 80.7947 46.2854 80.432C46.6907 80.0693 47.1227 79.888 47.5814 79.888C48.1574 79.888 48.664 80.1173 49.1014 80.576C49.5494 81.0347 49.9067 81.6213 50.1734 82.336C50.4507 83.0507 50.6267 83.792 50.7014 84.56H51.2934L51.3734 85.28L51.2934 86H50.6854C50.504 87.152 49.9174 88.1227 48.9254 88.912C47.944 89.7013 46.6374 90.2613 45.0054 90.592L44.5894 89.312ZM46.2534 83.872C46.424 84.1387 46.7974 84.32 47.3734 84.416C47.96 84.512 48.6907 84.56 49.5654 84.56C49.4587 83.696 49.2294 82.944 48.8774 82.304C48.5254 81.664 48.0827 81.328 47.5494 81.296C47.3147 81.2853 47.0854 81.3813 46.8614 81.584C46.6374 81.7867 46.456 82.048 46.3174 82.368C46.1787 82.688 46.1094 82.992 46.1094 83.28C46.1094 83.5147 46.1574 83.712 46.2534 83.872ZM51.0919 84.56H51.9239C52.7772 84.56 53.3905 84.448 53.7639 84.224C54.1479 84 54.3399 83.6533 54.3399 83.184C54.3399 82.8533 54.2332 82.3467 54.0199 81.664C53.8065 80.9813 53.6305 80.4853 53.4919 80.176L54.6439 79.568C54.8465 80.016 55.0545 80.608 55.2679 81.344C55.4812 82.0693 55.5879 82.688 55.5879 83.2C55.5772 84.1173 55.2572 84.816 54.6279 85.296C53.9985 85.7653 53.0972 86 51.9239 86H51.0919V84.56ZM53.0599 87.488L54.1959 88.624L53.0599 89.76L51.9239 88.624L53.0599 87.488ZM72.3429 86C71.7135 86 71.1909 85.7813 70.7749 85.344C70.7109 86.8267 70.2735 87.9733 69.4629 88.784C68.6522 89.6053 67.5322 90.016 66.1029 90.016C65.2815 90.016 64.5349 89.8453 63.8629 89.504C63.2015 89.1733 62.6735 88.704 62.2789 88.096C61.8949 87.488 61.7029 86.784 61.7029 85.984C61.7029 85.4187 61.8042 84.784 62.0069 84.08C62.2095 83.376 62.4549 82.7307 62.7429 82.144L63.8309 82.672C63.2442 83.8667 62.9509 84.9067 62.9509 85.792C62.9509 86.624 63.2335 87.296 63.7989 87.808C64.3749 88.32 65.1429 88.576 66.1029 88.576C67.3082 88.576 68.1935 88.2507 68.7589 87.6C69.3242 86.9493 69.5802 85.9733 69.5269 84.672C69.3349 79.84 69.1642 76.6613 69.0149 75.136L70.2789 74.864C70.3642 75.7173 70.5029 78.32 70.6949 82.672C70.7269 83.1733 70.7962 83.5573 70.9029 83.824C71.0095 84.0907 71.1695 84.2827 71.3829 84.4C71.6069 84.5067 71.9269 84.56 72.3429 84.56H72.5189L72.5989 85.28L72.5189 86H72.3429ZM72.3415 84.56H72.5815C73.1255 84.56 73.5682 84.4427 73.9095 84.208C74.2508 83.9733 74.5228 83.6053 74.7255 83.104C74.9282 82.592 75.0882 81.9093 75.2055 81.056L76.3735 81.296C76.3202 81.744 76.2935 82.1013 76.2935 82.368C76.2935 83.232 76.5068 83.8613 76.9335 84.256C77.7548 82.816 78.6668 81.6907 79.6695 80.88C80.6722 80.0693 81.6588 79.664 82.6295 79.664C83.1842 79.664 83.6855 79.7813 84.1335 80.016C84.5922 80.2507 84.9495 80.576 85.2055 80.992C85.4722 81.3973 85.6055 81.856 85.6055 82.368C85.6055 83.1573 85.3388 83.8507 84.8055 84.448C84.2828 85.0453 83.5575 85.5093 82.6295 85.84C81.7015 86.1707 80.6508 86.336 79.4775 86.336C78.2615 86.336 77.3388 86.1547 76.7095 85.792C76.0908 85.4187 75.6962 84.912 75.5255 84.272C75.2482 84.8267 74.8855 85.2533 74.4375 85.552C73.9895 85.8507 73.3655 86 72.5655 86H72.3415V84.56ZM78.0055 84.784C78.3468 84.8587 78.7788 84.896 79.3015 84.896C80.2935 84.896 81.1788 84.7787 81.9575 84.544C82.7362 84.3093 83.3388 84 83.7655 83.616C84.2028 83.232 84.4215 82.8213 84.4215 82.384C84.4215 81.9893 84.2722 81.6693 83.9735 81.424C83.6748 81.168 83.2588 81.04 82.7255 81.04C81.9255 81.04 81.1202 81.3653 80.3095 82.016C79.4988 82.6667 78.7308 83.5893 78.0055 84.784ZM87.546 85.904C87.6207 85.264 87.658 84.1813 87.658 82.656C87.658 81.2053 87.626 79.7067 87.562 78.16C87.5087 76.6027 87.4447 75.5947 87.37 75.136L88.65 74.864C88.714 75.3547 88.778 76.4267 88.842 78.08C88.9167 79.7227 88.954 81.2853 88.954 82.768C88.954 84.2613 88.9167 85.36 88.842 86.064L87.546 85.904Z" fill="#48484A"/>
</svg>
