<svg width="164" height="94" viewBox="0 0 164 94" fill="none" xmlns="http://www.w3.org/2000/svg">
<path d="M83.5416 21.7332C82.8375 21.2353 82.6687 20.2603 83.1645 19.5561L85.7208 15.9311C85.7583 15.8791 85.8124 15.8499 85.8541 15.804C85.9479 15.6999 86.0395 15.5916 86.1583 15.5145C86.5062 15.2916 86.9313 15.2144 87.3355 15.304C87.5459 15.3499 87.7417 15.4374 87.9125 15.5624L91.5001 18.0895C92.2043 18.5874 92.3728 19.5624 91.877 20.2665C91.3791 20.9707 90.4061 21.1415 89.6978 20.6436L89.1958 20.2895L89.9854 24.7644C90.1354 25.6144 89.5687 26.4249 88.7187 26.5749C88.627 26.5915 88.5354 26.5999 88.4458 26.5999C87.7021 26.5999 87.0418 26.0665 86.9105 25.3082L86.1145 20.7978L85.7229 21.354C85.4187 21.7853 84.9354 22.0145 84.4437 22.0145C84.1291 22.0165 83.8166 21.9249 83.5416 21.7332ZM75.4041 19.2041C74.9458 16.6103 75.2625 14.5811 76.3667 13.002C77.473 11.4207 79.275 10.4311 81.8688 9.9728L89.4397 8.63737C94.5688 7.73112 97.7645 9.96861 98.6687 15.1019L100.004 22.6728C100.462 25.2665 100.146 27.2957 99.0395 28.8769C97.9353 30.4561 96.1332 31.4457 93.5395 31.904L85.9688 33.2395C85.2271 33.3707 84.5228 33.4374 83.8603 33.4374C79.9582 33.4374 77.5124 31.1665 76.7395 26.777L75.4041 19.2041ZM78.4813 18.6624L79.8167 26.2332C80.423 29.6624 81.9917 30.7645 85.4271 30.1624L92.998 28.827C94.7334 28.5207 95.8728 27.952 96.4791 27.0853C97.0853 26.2186 97.2313 24.9541 96.9272 23.2186L95.5918 15.6478C95.0897 12.8061 93.925 11.5603 91.5896 11.5603C91.1063 11.5603 90.5709 11.6145 89.9814 11.7186L82.4105 13.0541C80.675 13.3603 79.5354 13.9311 78.9292 14.7978C78.3208 15.6603 78.1751 16.9269 78.4813 18.6624ZM102.288 34.6874C102.438 35.5374 101.871 36.3478 101.021 36.4978L79.3208 40.3166C78.9562 43.127 76.575 45.3124 73.6667 45.3124C70.5062 45.3124 67.9375 42.7436 67.9375 39.5832C67.9375 36.9999 69.6666 34.8353 72.0207 34.1228L67.775 9.95821C67.5271 8.54779 66.1687 7.60822 64.7479 7.84989L63.5104 8.0603C62.6667 8.19989 61.852 7.63114 61.7104 6.78114C61.5666 5.92906 62.1375 5.12279 62.9896 4.97904L64.2187 4.7707C67.2958 4.23111 70.3043 6.31237 70.8522 9.41446L75.1854 34.0811C76.8292 34.5374 78.1771 35.6915 78.873 37.2207L100.479 33.4165C101.331 33.2686 102.142 33.8374 102.288 34.6874ZM76.2708 39.5832C76.2708 38.1478 75.1021 36.979 73.6667 36.979C72.2312 36.979 71.0625 38.1478 71.0625 39.5832C71.0625 41.0186 72.2312 42.1874 73.6667 42.1874C75.1021 42.1874 76.2708 41.0186 76.2708 39.5832Z" fill="#48484A"/>
<path d="M8.26925 74.864C8.43992 76.208 8.56258 77.3227 8.63725 78.208C8.72258 79.0827 8.76525 79.968 8.76525 80.864C8.76525 81.2587 8.75992 81.552 8.74925 81.744C8.69592 83.248 8.09325 84.3733 6.94125 85.12C5.78925 85.856 4.27992 86.3093 2.41325 86.48L2.06125 85.072C2.41325 85.04 2.89325 84.9707 3.50125 84.864C3.56525 84.6187 3.59725 84.336 3.59725 84.016C3.59725 83.184 3.40525 82.144 3.02125 80.896C2.64792 79.648 2.16792 78.3413 1.58125 76.976L2.66925 76.256C3.34125 77.7067 3.86925 79.0933 4.25325 80.416C4.63725 81.728 4.82925 82.8427 4.82925 83.76C4.82925 84.0693 4.80792 84.3307 4.76525 84.544C6.56792 83.9787 7.46925 83.0453 7.46925 81.744C7.46925 80.688 7.43192 79.68 7.35725 78.72C7.28258 77.7493 7.15992 76.5547 6.98925 75.136L8.26925 74.864ZM13.8676 86C13.1103 86 12.5183 85.8773 12.0916 85.632C11.665 85.376 11.361 84.9973 11.1796 84.496C11.009 83.9947 10.9236 83.3333 10.9236 82.512C10.9236 81.296 10.897 79.92 10.8436 78.384C10.801 76.8373 10.7316 75.7547 10.6356 75.136L11.9156 74.864C12.001 75.408 12.065 76.3627 12.1076 77.728C12.161 79.0827 12.1876 80.3147 12.1876 81.424V82.096L12.1716 82.656C12.1716 83.1573 12.2143 83.5413 12.2996 83.808C12.385 84.064 12.545 84.256 12.7796 84.384C13.025 84.5013 13.3876 84.56 13.8676 84.56H13.9476L14.0276 85.28L13.9476 86H13.8676ZM13.5919 84.56H13.9919C16.5412 84.56 17.8159 84.032 17.8159 82.976C17.8159 82.432 17.5119 81.7653 16.9039 80.976C16.3065 80.1867 15.4692 79.3547 14.3919 78.48L14.5679 77.12L20.4079 74.592L20.8239 75.776L15.8159 77.952C16.6692 78.6773 17.4212 79.5147 18.0719 80.464C18.7332 81.4027 19.0639 82.2773 19.0639 83.088C19.0639 83.3653 19.0159 83.632 18.9199 83.888C18.6639 84.6027 18.1145 85.136 17.2719 85.488C16.4292 85.8293 15.3359 86 13.9919 86H13.5919V84.56ZM31.4521 86.16C29.6281 86.16 28.1988 85.8987 27.1641 85.376C26.1401 84.8533 25.5801 84.1013 25.4841 83.12C25.4735 83.0347 25.4681 82.912 25.4681 82.752C25.4681 82.304 25.5215 81.84 25.6281 81.36C25.7455 80.8693 25.8895 80.4373 26.0601 80.064L27.1481 80.608C26.8495 81.44 26.7001 82.096 26.7001 82.576C26.7001 82.7253 26.7055 82.8373 26.7161 82.912C26.8015 83.488 27.2388 83.936 28.0281 84.256C28.8281 84.5653 29.9801 84.72 31.4841 84.72C32.7748 84.72 33.8255 84.6133 34.6361 84.4C35.4575 84.176 36.1028 83.8347 36.5721 83.376C37.0415 82.9067 37.4041 82.288 37.6601 81.52L38.8441 81.648C38.6628 82.2453 38.5721 82.7467 38.5721 83.152C38.5721 84.0907 39.0308 84.56 39.9481 84.56L40.0281 85.28L39.9481 86C39.2975 86 38.7535 85.8187 38.3161 85.456C37.8788 85.0827 37.6228 84.576 37.5481 83.936C36.9401 84.7147 36.1348 85.28 35.1321 85.632C34.1295 85.984 32.9028 86.16 31.4521 86.16ZM30.3961 78.928L31.5321 80.064L30.3961 81.2L29.2601 80.064L30.3961 78.928ZM33.2601 78.928L34.3961 80.064L33.2601 81.2L32.1241 80.064L33.2601 78.928ZM52.755 86C52.339 86 51.955 85.92 51.603 85.76C51.251 85.5893 50.9523 85.3387 50.707 85.008C50.4723 85.3067 50.1843 85.5467 49.843 85.728C49.5123 85.8987 49.1603 85.9893 48.787 86H48.755H48.723C48.179 85.9893 47.731 85.84 47.379 85.552C47.0377 85.264 46.803 84.8533 46.675 84.32C46.4297 84.8107 46.1097 85.2107 45.715 85.52C45.331 85.8293 44.9097 85.9893 44.451 86H44.403C43.9123 86 43.5017 85.856 43.171 85.568C42.851 85.2693 42.659 84.8693 42.595 84.368C42.2643 84.9013 41.8697 85.3067 41.411 85.584C40.9523 85.8613 40.4457 86 39.891 86H39.827L39.747 85.28L39.827 84.56H39.907C40.3017 84.56 40.675 84.4693 41.027 84.288C41.379 84.1067 41.651 83.8667 41.843 83.568C42.0457 83.28 42.2003 82.976 42.307 82.656C42.4243 82.336 42.5417 81.9573 42.659 81.52L43.859 81.648C43.8377 81.712 43.795 81.872 43.731 82.128C43.667 82.384 43.6137 82.624 43.571 82.848C43.539 83.072 43.523 83.2747 43.523 83.456C43.523 84.192 43.8217 84.56 44.419 84.56H44.451C45.0483 84.56 45.5603 84.1867 45.987 83.44C46.1257 83.184 46.2323 82.88 46.307 82.528C46.3923 82.176 46.4723 81.7867 46.547 81.36L47.731 81.424C47.7203 81.4667 47.683 81.664 47.619 82.016C47.555 82.368 47.523 82.7093 47.523 83.04C47.523 83.552 47.619 83.936 47.811 84.192C48.0137 84.4373 48.3283 84.56 48.755 84.56C49.043 84.56 49.315 84.5013 49.571 84.384C49.827 84.256 50.0297 84.096 50.179 83.904C50.0723 83.5733 49.891 82.7253 49.635 81.36L50.803 81.056C51.0377 82.3787 51.219 83.2213 51.347 83.584C51.4537 83.9147 51.619 84.16 51.843 84.32C52.0777 84.48 52.3817 84.56 52.755 84.56H52.835L52.915 85.28L52.835 86H52.755ZM45.859 77.472L46.947 78.544L45.859 79.632L44.787 78.544L45.859 77.472ZM47.331 75.84L48.291 76.8L47.331 77.776L46.355 76.8L47.331 75.84ZM48.803 77.472L49.875 78.544L48.803 79.632L47.715 78.544L48.803 77.472ZM52.6544 84.56H53.0544C54.1104 84.56 54.937 84.4747 55.5344 84.304C56.1424 84.1333 56.5477 83.8613 56.7504 83.488C56.825 83.3707 56.8624 83.2213 56.8624 83.04C56.8624 82.528 56.553 81.888 55.9344 81.12C55.3264 80.352 54.4997 79.5627 53.4544 78.752L53.6144 77.376L59.4704 74.864L59.8864 76.032L54.8784 78.208C55.7317 78.9227 56.4624 79.7173 57.0704 80.592C57.689 81.4667 57.9984 82.2933 57.9984 83.072C57.9984 83.36 57.9504 83.632 57.8544 83.888C57.3424 85.296 55.7424 86 53.0544 86H52.6544V84.56ZM53.7904 75.504L58.8624 73.344L59.1024 73.952L53.7104 76.256L53.7904 75.504ZM58.7656 89.344C59.4483 89.1093 60.067 88.8 60.6216 88.416C61.1763 88.032 61.6083 87.6213 61.9176 87.184C62.2376 86.7467 62.3976 86.336 62.3976 85.952C62.3976 85.408 62.1256 84.0747 61.5816 81.952L62.8136 81.488C63.0483 82.2453 63.2403 83.0453 63.3896 83.888C63.5496 84.7307 63.6296 85.4187 63.6296 85.952C63.6296 86.5813 63.443 87.1947 63.0696 87.792C62.6963 88.4 62.179 88.944 61.5176 89.424C60.867 89.9147 60.131 90.304 59.3096 90.592L58.7656 89.344ZM61.9496 77.632L63.0856 78.768L61.9496 79.904L60.8136 78.768L61.9496 77.632ZM68.6176 86C67.8603 86 67.2683 85.8773 66.8416 85.632C66.415 85.376 66.111 84.9973 65.9296 84.496C65.759 83.9947 65.6736 83.3333 65.6736 82.512C65.6736 81.296 65.647 79.92 65.5936 78.384C65.551 76.8373 65.4816 75.7547 65.3856 75.136L66.6656 74.864C66.751 75.408 66.815 76.3627 66.8576 77.728C66.911 79.0827 66.9376 80.3147 66.9376 81.424V82.096L66.9216 82.656C66.9216 83.1573 66.9643 83.5413 67.0496 83.808C67.135 84.064 67.295 84.256 67.5296 84.384C67.775 84.5013 68.1376 84.56 68.6176 84.56H68.6976L68.7776 85.28L68.6976 86H68.6176ZM68.545 84.56H69.377C70.2303 84.56 70.8437 84.448 71.217 84.224C71.601 84 71.793 83.6533 71.793 83.184C71.793 82.8533 71.6863 82.3467 71.473 81.664C71.2597 80.9813 71.0837 80.4853 70.945 80.176L72.097 79.568C72.2997 80.016 72.5077 80.608 72.721 81.344C72.9343 82.0693 73.041 82.688 73.041 83.2C73.0303 84.1173 72.7103 84.816 72.081 85.296C71.4517 85.7653 70.5503 86 69.377 86H68.545V84.56ZM69.745 87.504L70.881 88.64L69.745 89.776L68.609 88.64L69.745 87.504ZM85.124 86.16C83.3 86.16 81.8707 85.8987 80.836 85.376C79.812 84.8533 79.252 84.1013 79.156 83.12C79.1453 83.0347 79.14 82.912 79.14 82.752C79.14 82.304 79.1933 81.84 79.3 81.36C79.4173 80.8693 79.5613 80.4373 79.732 80.064L80.82 80.608C80.5213 81.44 80.372 82.096 80.372 82.576C80.372 82.7253 80.3773 82.8373 80.388 82.912C80.4733 83.488 80.9107 83.936 81.7 84.256C82.5 84.5653 83.652 84.72 85.156 84.72C86.4467 84.72 87.4973 84.6133 88.308 84.4C89.1293 84.176 89.7747 83.8347 90.244 83.376C90.7133 82.9067 91.076 82.288 91.332 81.52L92.516 81.648C92.3347 82.2453 92.244 82.7467 92.244 83.152C92.244 84.0907 92.7027 84.56 93.62 84.56L93.7 85.28L93.62 86C92.9693 86 92.4253 85.8187 91.988 85.456C91.5507 85.0827 91.2947 84.576 91.22 83.936C90.612 84.7147 89.8067 85.28 88.804 85.632C87.8013 85.984 86.5747 86.16 85.124 86.16ZM84.068 78.928L85.204 80.064L84.068 81.2L82.932 80.064L84.068 78.928ZM86.932 78.928L88.068 80.064L86.932 81.2L85.796 80.064L86.932 78.928ZM93.4669 84.56H94.2989C95.1522 84.56 95.7655 84.448 96.1389 84.224C96.5229 84 96.7149 83.6533 96.7149 83.184C96.7149 82.8533 96.6082 82.3467 96.3949 81.664C96.1815 80.9813 96.0055 80.4853 95.8669 80.176L97.0189 79.568C97.2215 80.016 97.4295 80.608 97.6429 81.344C97.8562 82.0693 97.9629 82.688 97.9629 83.2C97.9522 84.1173 97.6322 84.816 97.0029 85.296C96.3735 85.7653 95.4722 86 94.2989 86H93.4669V84.56ZM95.9949 76.304L97.1309 77.44L95.9949 78.576L94.8589 77.44L95.9949 76.304ZM102.977 86C102.22 86 101.628 85.8773 101.201 85.632C100.774 85.376 100.47 84.9973 100.289 84.496C100.118 83.9947 100.033 83.3333 100.033 82.512C100.033 81.296 100.006 79.92 99.953 78.384C99.9103 76.8373 99.841 75.7547 99.745 75.136L101.025 74.864C101.11 75.408 101.174 76.3627 101.217 77.728C101.27 79.0827 101.297 80.3147 101.297 81.424V82.096L101.281 82.656C101.281 83.1573 101.324 83.5413 101.409 83.808C101.494 84.064 101.654 84.256 101.889 84.384C102.134 84.5013 102.497 84.56 102.977 84.56H103.057L103.137 85.28L103.057 86H102.977ZM102.904 84.56H103.224C104.12 84.56 104.83 84.064 105.352 83.072C105.875 82.112 106.36 81.376 106.808 80.864C107.256 80.3413 107.763 80.064 108.328 80.032C109.555 79.968 110.387 80.8107 110.824 82.56C110.995 83.2747 111.176 83.7867 111.368 84.096C111.56 84.4053 111.827 84.56 112.168 84.56H112.312L112.392 85.28L112.312 86H112.168C111.379 86 110.867 85.5627 110.632 84.688C110.6 84.944 110.488 85.184 110.296 85.408C110.115 85.632 109.912 85.8027 109.688 85.92C109.507 86.0267 109.283 86.08 109.016 86.08C108.248 86.08 107.166 85.6267 105.768 84.72C105.448 85.136 105.064 85.456 104.616 85.68C104.179 85.8933 103.704 86 103.192 86H102.904V84.56ZM106.408 83.568C107.006 83.984 107.555 84.2987 108.056 84.512C108.568 84.7147 108.974 84.816 109.272 84.816C109.379 84.816 109.464 84.8 109.528 84.768C109.763 84.544 109.88 84.1813 109.88 83.68C109.88 83.328 109.816 82.9707 109.688 82.608C109.571 82.2453 109.4 81.9467 109.176 81.712C108.963 81.4667 108.718 81.344 108.44 81.344C108.12 81.344 107.79 81.5413 107.448 81.936C107.118 82.3307 106.771 82.8747 106.408 83.568ZM112.138 84.56H112.378C112.922 84.56 113.365 84.4427 113.706 84.208C114.048 83.9733 114.32 83.6053 114.522 83.104C114.725 82.592 114.885 81.9093 115.002 81.056L116.17 81.296C116.117 81.744 116.09 82.1013 116.09 82.368C116.09 83.232 116.304 83.8613 116.73 84.256C117.552 82.816 118.464 81.6907 119.466 80.88C120.469 80.0693 121.456 79.664 122.426 79.664C122.981 79.664 123.482 79.7813 123.93 80.016C124.389 80.2507 124.746 80.576 125.002 80.992C125.269 81.3973 125.402 81.856 125.402 82.368C125.402 83.1573 125.136 83.8507 124.602 84.448C124.08 85.0453 123.354 85.5093 122.426 85.84C121.498 86.1707 120.448 86.336 119.274 86.336C118.058 86.336 117.136 86.1547 116.506 85.792C115.888 85.4187 115.493 84.912 115.322 84.272C115.045 84.8267 114.682 85.2533 114.234 85.552C113.786 85.8507 113.162 86 112.362 86H112.138V84.56ZM117.802 84.784C118.144 84.8587 118.576 84.896 119.098 84.896C120.09 84.896 120.976 84.7787 121.754 84.544C122.533 84.3093 123.136 84 123.562 83.616C124 83.232 124.218 82.8213 124.218 82.384C124.218 81.9893 124.069 81.6693 123.77 81.424C123.472 81.168 123.056 81.04 122.522 81.04C121.722 81.04 120.917 81.3653 120.106 82.016C119.296 82.6667 118.528 83.5893 117.802 84.784ZM121.882 76.272L123.018 77.408L121.882 78.544L120.746 77.408L121.882 76.272ZM130.844 89.344C131.526 89.1093 132.145 88.8 132.7 88.416C133.254 88.032 133.686 87.6213 133.996 87.184C134.316 86.7467 134.476 86.336 134.476 85.952C134.476 85.408 134.204 84.0747 133.66 81.952L134.892 81.488C135.126 82.2453 135.318 83.0453 135.468 83.888C135.628 84.7307 135.708 85.4187 135.708 85.952C135.708 86.5813 135.521 87.1947 135.148 87.792C134.774 88.4 134.257 88.944 133.596 89.424C132.945 89.9147 132.209 90.304 131.388 90.592L130.844 89.344ZM134.028 77.632L135.164 78.768L134.028 79.904L132.892 78.768L134.028 77.632ZM136.824 89.312C138.37 88.9707 139.549 88.5227 140.36 87.968C141.181 87.424 141.661 86.7467 141.8 85.936C141.458 86.0107 141.048 86.048 140.568 86.048C139.874 86.048 139.245 85.9413 138.68 85.728C138.114 85.504 137.709 85.152 137.464 84.672C137.293 84.3307 137.208 83.9307 137.208 83.472C137.208 82.9173 137.325 82.3627 137.56 81.808C137.805 81.2533 138.125 80.7947 138.52 80.432C138.925 80.0693 139.357 79.888 139.816 79.888C140.445 79.888 141 80.1653 141.48 80.72C141.96 81.2747 142.328 81.9733 142.584 82.816C142.84 83.648 142.968 84.4693 142.968 85.28C142.968 86.6027 142.461 87.728 141.448 88.656C140.445 89.584 139.042 90.2293 137.24 90.592L136.824 89.312ZM138.488 83.872C138.648 84.128 138.93 84.32 139.336 84.448C139.752 84.576 140.226 84.64 140.76 84.64C141.069 84.64 141.41 84.6133 141.784 84.56C141.677 83.696 141.448 82.944 141.096 82.304C140.754 81.664 140.317 81.328 139.784 81.296C139.549 81.2853 139.32 81.3813 139.096 81.584C138.872 81.7867 138.69 82.048 138.552 82.368C138.413 82.688 138.344 82.992 138.344 83.28C138.344 83.5147 138.392 83.712 138.488 83.872ZM143.125 89.344C143.808 89.1093 144.426 88.8 144.981 88.416C145.536 88.032 145.968 87.6213 146.277 87.184C146.597 86.7467 146.757 86.336 146.757 85.952C146.757 85.408 146.485 84.0747 145.941 81.952L147.173 81.488C147.408 82.2453 147.6 83.0453 147.749 83.888C147.909 84.7307 147.989 85.4187 147.989 85.952C147.989 86.5813 147.802 87.1947 147.429 87.792C147.056 88.4 146.538 88.944 145.877 89.424C145.226 89.9147 144.49 90.304 143.669 90.592L143.125 89.344ZM162.734 75.744C162.339 76.3627 161.87 77.28 161.326 78.496C160.782 79.7013 160.286 80.9867 159.838 82.352C159.401 83.7173 159.118 84.9333 158.99 86H157.646C157.55 84.944 157.278 83.7387 156.83 82.384C156.393 81.0187 155.897 79.728 155.342 78.512C154.787 77.296 154.307 76.3733 153.902 75.744L155.166 74.816C155.635 75.6053 156.174 76.768 156.782 78.304C157.401 79.8293 157.918 81.3653 158.334 82.912C158.761 81.344 159.273 79.7973 159.87 78.272C160.478 76.736 161.011 75.584 161.47 74.816L162.734 75.744Z" fill="#48484A"/>
</svg>
