<svg width="145" height="94" viewBox="0 0 145 94" fill="none" xmlns="http://www.w3.org/2000/svg">
<path d="M85.1521 39.0625C84.6562 39.0625 84.1543 38.9437 83.6938 38.7L77.9751 35.7084L72.3416 38.6979C71.277 39.2563 70.0064 39.1625 69.0335 38.4542C68.0605 37.7458 67.5855 36.5709 67.7876 35.3875L68.8771 29.0646L64.1374 24.5229C63.3041 23.7104 63.0062 22.5208 63.3666 21.4146C63.7249 20.3083 64.6645 19.5146 65.8187 19.3479L72.4105 18.3937L75.2 12.6834C75.7334 11.6063 76.8103 10.9375 78.0166 10.9375C79.2186 10.9375 80.298 11.6063 80.8313 12.6834L83.6875 18.4438L90.2124 19.3479C91.3666 19.5146 92.3062 20.3062 92.6645 21.4146C93.0249 22.5208 92.727 23.7125 91.8937 24.5229L87.1271 29.148L88.2458 35.3938C88.45 36.5792 87.9708 37.7521 86.9979 38.4584C86.4458 38.8584 85.8021 39.0625 85.1521 39.0625ZM78.0125 32.5938C78.4958 32.5938 78.9812 32.7084 79.4229 32.9417L85.1417 35.9333L84.0707 29.5958C83.8999 28.6125 84.225 27.6041 84.9458 26.9062L89.7124 22.2813L83.1687 21.4876C82.1791 21.3459 81.3228 20.725 80.8811 19.8292L78.027 14.0729C78.0228 14.0646 78.0188 14.0605 78.0188 14.0605L75.1395 19.8334C74.6999 20.725 73.8438 21.3458 72.8543 21.4896L66.2625 22.4438L71.0792 26.9084C71.7958 27.6042 72.125 28.6083 71.9563 29.5958L70.8665 35.9229L76.6041 32.9437C77.0479 32.7083 77.5312 32.5938 78.0125 32.5938ZM63.6458 35.4167C63.6458 34.5542 62.9458 33.8542 62.0833 33.8542H53.75C52.8875 33.8542 52.1875 34.5542 52.1875 35.4167C52.1875 36.2792 52.8875 36.9792 53.75 36.9792H62.0833C62.9458 36.9792 63.6458 36.2792 63.6458 35.4167ZM59.4792 25C59.4792 24.1375 58.7792 23.4375 57.9167 23.4375H53.75C52.8875 23.4375 52.1875 24.1375 52.1875 25C52.1875 25.8625 52.8875 26.5625 53.75 26.5625H57.9167C58.7792 26.5625 59.4792 25.8625 59.4792 25ZM63.6458 14.5833C63.6458 13.7208 62.9458 13.0208 62.0833 13.0208H53.75C52.8875 13.0208 52.1875 13.7208 52.1875 14.5833C52.1875 15.4458 52.8875 16.1458 53.75 16.1458H62.0833C62.9458 16.1458 63.6458 15.4458 63.6458 14.5833Z" fill="#48484A"/>
<path d="M9.96044 75.744C9.56577 76.3627 9.09644 77.28 8.55244 78.496C8.00844 79.7013 7.51244 80.9867 7.06444 82.352C6.6271 83.7173 6.34444 84.9333 6.21644 86H4.87244C4.77644 84.944 4.50444 83.7387 4.05644 82.384C3.6191 81.0187 3.1231 79.728 2.56844 78.512C2.01377 77.296 1.53377 76.3733 1.12844 75.744L2.39244 74.816C2.86177 75.6053 3.40044 76.768 4.00844 78.304C4.6271 79.8293 5.14444 81.3653 5.56044 82.912C5.9871 81.344 6.4991 79.7973 7.09644 78.272C7.70444 76.736 8.23777 75.584 8.69644 74.816L9.96044 75.744ZM16.6982 86.976H15.3222L20.0742 74.624H21.4342L16.6982 86.976ZM29.0488 85.2C29.0488 83.184 28.9581 81.504 28.7768 80.16C28.6595 79.2213 28.4995 78.4 28.2968 77.696C28.1048 76.9813 27.8648 76.2987 27.5768 75.648L28.9368 74.864C29.1181 75.248 29.2835 75.6853 29.4328 76.176C29.7101 76.912 29.9981 77.456 30.2968 77.808C30.6061 78.16 31.0435 78.336 31.6088 78.336C32.2488 78.336 32.7021 78.1387 32.9688 77.744C33.2355 77.3493 33.3688 76.7947 33.3688 76.08C33.3688 75.888 33.3475 75.5573 33.3048 75.088L34.5048 74.864C34.5795 75.28 34.6168 75.712 34.6168 76.16C34.6168 77.2587 34.3555 78.1493 33.8328 78.832C33.3208 79.5147 32.5795 79.856 31.6088 79.856C31.0435 79.856 30.5421 79.712 30.1048 79.424L30.1688 79.984C30.3288 81.264 30.4088 82.912 30.4088 84.928L30.3928 86H29.0488V85.2ZM37.6296 85.28C37.6296 84.4053 37.6029 83.5093 37.5496 82.592C37.5069 81.6747 37.4429 80.864 37.3576 80.16C37.2402 79.2213 37.0802 78.4 36.8776 77.696C36.6856 76.9813 36.4456 76.2987 36.1576 75.648L37.5176 74.864C37.7522 75.344 37.9762 75.9787 38.1896 76.768C38.4349 77.6107 38.7816 78.2773 39.2296 78.768L39.1816 78.432C39.1389 77.8453 39.2509 77.2853 39.5176 76.752C39.7842 76.2187 40.1682 75.792 40.6696 75.472C41.1816 75.1413 41.7469 74.976 42.3656 74.976C42.8456 74.976 43.2989 75.072 43.7256 75.264C44.1522 75.456 44.5789 75.7227 45.0056 76.064L44.4456 77.136C44.1682 76.9547 43.8482 76.8053 43.4856 76.688C43.1336 76.56 42.7869 76.496 42.4456 76.496C41.8696 76.496 41.3896 76.6613 41.0056 76.992C40.6216 77.312 40.4296 77.7067 40.4296 78.176C40.4296 78.6667 40.5949 79.072 40.9256 79.392C41.2562 79.7013 41.7256 79.856 42.3336 79.856C43.0696 79.856 43.9389 79.6053 44.9416 79.104L45.3096 80.416C44.8936 80.6827 44.4029 80.9013 43.8376 81.072C43.2829 81.232 42.7069 81.312 42.1096 81.312C41.5016 81.312 40.9042 81.2107 40.3176 81.008C39.7416 80.8053 39.2189 80.4853 38.7496 80.048C38.8989 81.392 38.9736 83.0667 38.9736 85.072V86H37.6296V85.28ZM59.4548 84.56L59.5348 85.28L59.4548 86H59.1188C58.2335 86 57.4335 85.8773 56.7188 85.632C56.0041 85.3867 55.3375 85.0293 54.7188 84.56C53.9721 84.944 53.3855 85.344 52.9588 85.76C52.5321 86.1653 52.3241 86.6187 52.3348 87.12C52.2921 87.2587 52.2708 87.424 52.2708 87.616C52.2708 88.0427 52.4095 88.4267 52.6868 88.768C52.9641 89.12 53.3481 89.3973 53.8388 89.6C54.3295 89.8027 54.8895 89.904 55.5188 89.904C56.1588 89.904 56.7775 89.8187 57.3748 89.648C57.9828 89.488 58.4521 89.3173 58.7828 89.136L59.2788 90.272C58.8415 90.592 58.2815 90.848 57.5988 91.04C56.9161 91.2427 56.2228 91.344 55.5188 91.344C54.6868 91.344 53.9295 91.1733 53.2468 90.832C52.5641 90.5013 52.0201 90.0427 51.6148 89.456C51.2201 88.8693 51.0228 88.2187 51.0228 87.504C51.0228 87.312 51.0388 87.12 51.0708 86.928C51.1881 86.192 51.4761 85.568 51.9348 85.056C52.3935 84.5333 52.9801 84.0693 53.6948 83.664C53.1081 83.0773 52.4041 82.2453 51.5828 81.168L51.6308 80.208C52.0575 79.7813 52.6015 79.4613 53.2628 79.248C53.9241 79.024 54.6068 78.912 55.3108 78.912C56.1108 78.912 56.8095 79.0507 57.4068 79.328C58.0041 79.5947 58.3775 79.9733 58.5268 80.464C58.5801 80.6133 58.6068 80.7893 58.6068 80.992C58.6068 81.5147 58.3775 82.0267 57.9188 82.528C57.4601 83.0187 56.8468 83.4667 56.0788 83.872C56.9428 84.3307 57.9561 84.56 59.1188 84.56H59.4548ZM52.8948 80.88C53.6948 81.8827 54.3615 82.608 54.8948 83.056L54.9428 83.04C55.8388 82.624 56.4895 82.256 56.8948 81.936C57.3108 81.6053 57.4868 81.264 57.4228 80.912C57.3161 80.688 57.0708 80.5067 56.6868 80.368C56.3028 80.2293 55.8601 80.16 55.3588 80.16C54.9001 80.16 54.4521 80.224 54.0148 80.352C53.5881 80.4693 53.2148 80.6453 52.8948 80.88ZM59.2552 85.28L59.3352 84.56H60.2472C61.3885 84.56 62.1939 84.4533 62.6632 84.24C63.1325 84.016 63.3672 83.6533 63.3672 83.152C63.3565 82.8213 63.2445 82.32 63.0312 81.648C62.8285 80.9653 62.6525 80.4747 62.5032 80.176L63.6552 79.568C63.8685 79.984 64.0765 80.5493 64.2792 81.264C64.4925 81.968 64.5992 82.5813 64.5992 83.104C64.5992 84.0533 64.2525 84.7733 63.5592 85.264C62.8659 85.7547 61.8205 86 60.4232 86H59.3352L59.2552 85.28ZM60.5352 87.456L61.6712 88.592L60.5352 89.728L59.3992 88.592L60.5352 87.456ZM63.3992 87.456L64.5352 88.592L63.3992 89.728L62.2632 88.592L63.3992 87.456ZM71.1938 86C70.7885 86 70.4311 85.904 70.1218 85.712V85.952C70.1218 86.5813 69.9351 87.1947 69.5618 87.792C69.1885 88.4 68.6711 88.944 68.0098 89.424C67.3591 89.9147 66.6231 90.304 65.8018 90.592L65.2578 89.344C65.9405 89.1093 66.5591 88.8 67.1138 88.416C67.6685 88.032 68.1005 87.6213 68.4098 87.184C68.7298 86.7467 68.8898 86.336 68.8898 85.952C68.8898 85.408 68.6178 84.0747 68.0738 81.952L69.3058 81.488C69.4765 82.0427 69.6151 82.5813 69.7218 83.104C69.8818 83.6373 70.0738 84.016 70.2978 84.24C70.5218 84.4533 70.8205 84.56 71.1938 84.56H71.3058L71.3858 85.28L71.3058 86H71.1938ZM80.0746 86C79.5306 85.9893 79.0826 85.84 78.7306 85.552C78.3892 85.264 78.1546 84.8533 78.0266 84.32C77.7812 84.8107 77.4612 85.2107 77.0666 85.52C76.6826 85.8293 76.2612 85.9893 75.8026 86H75.7546C75.2639 86 74.8532 85.856 74.5226 85.568C74.2026 85.2693 74.0106 84.8693 73.9466 84.368C73.6159 84.9013 73.2212 85.3067 72.7626 85.584C72.3039 85.8613 71.7972 86 71.2426 86H71.1786L71.0986 85.28L71.1786 84.56H71.2586C71.6532 84.56 72.0266 84.4693 72.3786 84.288C72.7306 84.1067 73.0026 83.8667 73.1946 83.568C73.3972 83.28 73.5519 82.976 73.6586 82.656C73.7759 82.336 73.8932 81.9573 74.0106 81.52L75.2106 81.648C75.1892 81.712 75.1466 81.872 75.0826 82.128C75.0186 82.384 74.9652 82.624 74.9226 82.848C74.8906 83.072 74.8746 83.2747 74.8746 83.456C74.8746 84.192 75.1732 84.56 75.7706 84.56H75.8026C76.3999 84.56 76.9119 84.1867 77.3386 83.44C77.4772 83.184 77.5839 82.88 77.6586 82.528C77.7439 82.176 77.8239 81.7867 77.8986 81.36L79.0826 81.424C79.0719 81.4667 79.0346 81.664 78.9706 82.016C78.9066 82.368 78.8746 82.7093 78.8746 83.04C78.8746 83.552 78.9706 83.936 79.1626 84.192C79.3652 84.4373 79.6799 84.56 80.1066 84.56C80.9066 84.56 81.3066 84.1173 81.3066 83.232C81.3066 82.8693 81.1999 82.3627 80.9866 81.712C80.7839 81.0507 80.6026 80.5493 80.4426 80.208L81.5786 79.584C81.7919 80.032 82.0052 80.6187 82.2186 81.344C82.4319 82.0587 82.5386 82.688 82.5386 83.232C82.5386 83.744 82.4372 84.2133 82.2346 84.64C82.0319 85.056 81.7439 85.3867 81.3706 85.632C81.0079 85.8773 80.5972 86 80.1386 86H80.1066H80.0746ZM93.2428 90.464C92.3255 90.464 91.5095 90.2827 90.7948 89.92C90.0908 89.568 89.5361 89.0613 89.1308 88.4C88.7255 87.7387 88.5228 86.9653 88.5228 86.08C88.5228 85.4293 88.6295 84.7413 88.8428 84.016C89.0561 83.2907 89.3015 82.6507 89.5788 82.096L90.6668 82.608C90.0695 83.8667 89.7708 84.9653 89.7708 85.904C89.7708 86.9173 90.0695 87.6907 90.6668 88.224C91.2641 88.7573 92.1228 89.024 93.2428 89.024C93.8935 89.024 94.5068 88.9387 95.0828 88.768C95.6695 88.5973 96.1495 88.384 96.5228 88.128C96.8961 87.8827 97.1095 87.664 97.1628 87.472C97.1095 87.3547 96.9228 87.168 96.6028 86.912C96.2935 86.6667 95.9041 86.4053 95.4348 86.128C94.9655 85.8507 94.4801 85.6107 93.9788 85.408L94.2828 84.048C95.9361 84.3893 97.3121 84.56 98.4108 84.56H98.7948L98.8748 85.28L98.7948 86H98.4108C97.9415 86 97.5308 85.9787 97.1788 85.936C97.9895 86.5013 98.3948 87.0187 98.3948 87.488C98.3948 87.9787 98.1548 88.4533 97.6748 88.912C97.2055 89.3707 96.5708 89.744 95.7708 90.032C94.9815 90.32 94.1388 90.464 93.2428 90.464ZM98.5059 84.56H99.3379C100.191 84.56 100.805 84.448 101.178 84.224C101.562 84 101.754 83.6533 101.754 83.184C101.754 82.8533 101.647 82.3467 101.434 81.664C101.221 80.9813 101.045 80.4853 100.906 80.176L102.058 79.568C102.261 80.016 102.469 80.608 102.682 81.344C102.895 82.0693 103.002 82.688 103.002 83.2C102.991 84.1173 102.671 84.816 102.042 85.296C101.413 85.7653 100.511 86 99.3379 86H98.5059V84.56ZM101.034 76.304L102.17 77.44L101.034 78.576L99.8979 77.44L101.034 76.304ZM108.016 86C107.259 86 106.667 85.8773 106.24 85.632C105.813 85.376 105.509 84.9973 105.328 84.496C105.157 83.9947 105.072 83.3333 105.072 82.512C105.072 81.296 105.045 79.92 104.992 78.384C104.949 76.8373 104.88 75.7547 104.784 75.136L106.064 74.864C106.149 75.408 106.213 76.3627 106.256 77.728C106.309 79.0827 106.336 80.3147 106.336 81.424V82.096L106.32 82.656C106.32 83.1573 106.363 83.5413 106.448 83.808C106.533 84.064 106.693 84.256 106.928 84.384C107.173 84.5013 107.536 84.56 108.016 84.56H108.096L108.176 85.28L108.096 86H108.016ZM107.943 84.56H108.071C108.839 84.56 109.426 84.48 109.831 84.32C110.237 84.1493 110.509 83.8827 110.647 83.52C110.701 83.3707 110.727 83.1627 110.727 82.896C110.727 82.6293 110.685 82.176 110.599 81.536L110.535 81.072L111.703 80.848C111.842 81.52 111.911 82.3733 111.911 83.408C111.986 83.7813 112.151 84.0693 112.407 84.272C112.663 84.464 112.983 84.56 113.367 84.56H113.495L113.575 85.28L113.495 86H113.367C112.919 86 112.514 85.888 112.151 85.664C111.789 85.4293 111.506 85.12 111.303 84.736C111.069 85.1947 110.685 85.52 110.151 85.712C109.629 85.904 108.935 86 108.071 86H107.943V84.56ZM108.967 87.504L110.103 88.64L108.967 89.776L107.831 88.64L108.967 87.504ZM113.334 84.56H113.478C114.299 84.56 114.939 84.528 115.398 84.464C115.857 84.3893 116.193 84.2773 116.406 84.128C116.619 83.9787 116.774 83.776 116.87 83.52C116.934 83.328 116.966 83.0987 116.966 82.832C116.966 82.4907 116.902 81.904 116.774 81.072L117.958 80.848C118.086 81.52 118.155 82.3733 118.166 83.408C118.315 84.176 118.801 84.56 119.622 84.56H119.734L119.814 85.28L119.734 86H119.622C119.174 86 118.769 85.888 118.406 85.664C118.043 85.4293 117.761 85.12 117.558 84.736C117.302 85.2053 116.865 85.536 116.246 85.728C115.627 85.9093 114.705 86 113.478 86H113.334V84.56ZM113.622 87.456L114.758 88.592L113.622 89.728L112.486 88.592L113.622 87.456ZM116.486 87.456L117.622 88.592L116.486 89.728L115.35 88.592L116.486 87.456ZM125.936 86C125.456 86 125.019 85.904 124.624 85.712C124.24 85.52 123.936 85.232 123.712 84.848C123.36 85.2427 122.854 85.536 122.192 85.728C121.542 85.9093 120.699 86 119.664 86H119.568V84.56H119.664C120.72 84.56 121.536 84.4747 122.112 84.304C122.699 84.1333 123.083 83.872 123.264 83.52L122.752 81.168L123.888 80.816C124.198 82.2027 124.406 83.0773 124.512 83.44C124.63 83.824 124.8 84.1067 125.024 84.288C125.259 84.4693 125.563 84.56 125.936 84.56H126.016L126.096 85.28L126.016 86H125.936ZM121.488 77.296L122.624 78.432L121.488 79.568L120.352 78.432L121.488 77.296ZM124.352 77.296L125.488 78.432L124.352 79.568L123.216 78.432L124.352 77.296ZM138.81 86C138.394 86 138.01 85.92 137.658 85.76C137.306 85.5893 137.007 85.3387 136.762 85.008C136.527 85.3067 136.239 85.5467 135.898 85.728C135.567 85.8987 135.215 85.9893 134.842 86H134.81H134.778C134.234 85.9893 133.786 85.84 133.434 85.552C133.092 85.264 132.858 84.8533 132.73 84.32C132.484 84.8107 132.164 85.2107 131.77 85.52C131.386 85.8293 130.964 85.9893 130.506 86H130.458C129.967 86 129.556 85.856 129.226 85.568C128.906 85.2693 128.714 84.8693 128.65 84.368C128.319 84.9013 127.924 85.3067 127.466 85.584C127.007 85.8613 126.5 86 125.946 86H125.882L125.802 85.28L125.882 84.56H125.962C126.356 84.56 126.73 84.4693 127.082 84.288C127.434 84.1067 127.706 83.8667 127.898 83.568C128.1 83.28 128.255 82.976 128.362 82.656C128.479 82.336 128.596 81.9573 128.714 81.52L129.914 81.648C129.892 81.712 129.85 81.872 129.786 82.128C129.722 82.384 129.668 82.624 129.626 82.848C129.594 83.072 129.578 83.2747 129.578 83.456C129.578 84.192 129.876 84.56 130.474 84.56H130.506C131.103 84.56 131.615 84.1867 132.042 83.44C132.18 83.184 132.287 82.88 132.362 82.528C132.447 82.176 132.527 81.7867 132.602 81.36L133.786 81.424C133.775 81.4667 133.738 81.664 133.674 82.016C133.61 82.368 133.578 82.7093 133.578 83.04C133.578 83.552 133.674 83.936 133.866 84.192C134.068 84.4373 134.383 84.56 134.81 84.56C135.098 84.56 135.37 84.5013 135.626 84.384C135.882 84.256 136.084 84.096 136.234 83.904C136.127 83.5733 135.946 82.7253 135.69 81.36L136.858 81.056C137.092 82.3787 137.274 83.2213 137.402 83.584C137.508 83.9147 137.674 84.16 137.898 84.32C138.132 84.48 138.436 84.56 138.81 84.56H138.89L138.97 85.28L138.89 86H138.81ZM131.914 77.472L133.002 78.544L131.914 79.632L130.842 78.544L131.914 77.472ZM133.386 75.84L134.346 76.8L133.386 77.776L132.41 76.8L133.386 75.84ZM134.858 77.472L135.93 78.544L134.858 79.632L133.77 78.544L134.858 77.472ZM138.709 84.56H139.349C140.49 84.56 141.296 84.4533 141.765 84.24C142.234 84.016 142.469 83.6533 142.469 83.152C142.458 82.8213 142.346 82.32 142.133 81.648C141.93 80.9653 141.754 80.4747 141.605 80.176L142.757 79.568C142.97 79.984 143.178 80.5493 143.381 81.264C143.594 81.968 143.701 82.5813 143.701 83.104C143.701 84.0533 143.354 84.7733 142.661 85.264C141.968 85.7547 140.922 86 139.525 86H138.709V84.56ZM138.837 87.072L139.925 88.16L138.837 89.232L137.765 88.16L138.837 87.072ZM140.309 88.928L141.285 89.904L140.309 90.864L139.349 89.904L140.309 88.928ZM141.781 87.072L142.853 88.16L141.781 89.232L140.693 88.16L141.781 87.072Z" fill="#48484A"/>
</svg>
