<svg width="125" height="125" viewBox="0 0 125 125" fill="none" xmlns="http://www.w3.org/2000/svg">
<rect width="124.306" height="124.719" rx="62.153" fill="#F2F2F7"/>
<path d="M61.0366 44.46C61.3083 43.4843 62.6917 43.4843 62.9634 44.46L66.4222 56.8827C66.5161 57.2202 66.7798 57.4839 67.1173 57.5778L79.54 61.0366C80.5157 61.3083 80.5157 62.6917 79.54 62.9634L67.1173 66.4222C66.7798 66.5161 66.5161 66.7798 66.4222 67.1173L62.9634 79.54C62.6917 80.5157 61.3083 80.5157 61.0366 79.54L57.5778 67.1173C57.4839 66.7798 57.2202 66.5161 56.8827 66.4222L44.46 62.9634C43.4843 62.6917 43.4843 61.3083 44.46 61.0366L56.8827 57.5778C57.2202 57.4839 57.4839 57.2202 57.5778 56.8827L61.0366 44.46Z" fill="#1C1C1E"/>
<path d="M57.6612 106.031C57.634 106.227 57.5484 106.387 57.4044 106.509C57.2555 106.63 57.0658 106.675 56.8352 106.644C56.6095 106.612 56.4414 106.518 56.3309 106.361C56.2156 106.203 56.1715 106.026 56.1986 105.829C56.2264 105.627 56.3165 105.471 56.4688 105.36C56.6164 105.248 56.803 105.208 57.0288 105.239C57.2593 105.27 57.4305 105.36 57.5423 105.508C57.6493 105.654 57.689 105.829 57.6612 106.031Z" fill="#1C1C1E"/>
<path d="M61.327 108.46C61.347 109.09 61.5856 109.58 62.043 109.929C62.4956 110.283 63.316 110.607 64.504 110.899C65.6872 111.191 66.5564 111.525 67.1115 111.9C67.8996 112.429 68.3078 113.141 68.3361 114.037C68.3636 114.905 68.0298 115.621 67.3346 116.186C66.6347 116.757 65.7275 117.06 64.6129 117.095C63.8569 117.119 63.1762 116.992 62.5708 116.716C61.9655 116.444 61.4922 116.051 61.151 115.538C60.805 115.03 60.6219 114.456 60.6017 113.817L61.5684 113.786C61.593 114.561 61.8792 115.176 62.4272 115.629C62.9704 116.087 63.6903 116.302 64.5869 116.273C65.4543 116.246 66.1412 116.03 66.6474 115.626C67.1488 115.222 67.3896 114.708 67.3698 114.082C67.3516 113.506 67.1064 113.041 66.6344 112.687C66.1576 112.338 65.406 112.039 64.3794 111.79C63.3482 111.547 62.5661 111.283 62.0332 110.999C61.4956 110.72 61.087 110.376 60.8072 109.968C60.5275 109.56 60.3787 109.072 60.3607 108.505C60.3323 107.609 60.6681 106.878 61.3682 106.312C62.0635 105.752 62.9975 105.453 64.1703 105.416C64.9747 105.39 65.7159 105.51 66.3937 105.775C67.0715 106.039 67.5906 106.423 67.9509 106.926C68.3112 107.429 68.502 108.014 68.5232 108.683L67.5636 108.714C67.5382 107.909 67.22 107.284 66.6092 106.837C65.9937 106.396 65.1893 106.191 64.1958 106.223C63.309 106.251 62.6052 106.467 62.0844 106.872C61.5589 107.281 61.3065 107.811 61.327 108.46Z" fill="#1C1C1E"/>
<path d="M74.3469 109.542L79.4464 108.039L78.1347 103.589L72.2678 105.318L72.0376 104.536L78.8253 102.536L82.0408 113.446L75.288 115.437L75.0557 114.648L80.8877 112.93L79.6767 108.821L74.5772 110.324L74.3469 109.542Z" fill="#1C1C1E"/>
<path d="M83.8163 103.049C84.1412 103.589 84.5885 103.9 85.1582 103.982C85.7262 104.07 86.6 103.952 87.7796 103.627C88.9549 103.305 89.8765 103.172 90.5443 103.229C91.4898 103.305 92.1937 103.727 92.6561 104.496C93.1035 105.24 93.1617 106.028 92.8309 106.861C92.4984 107.7 91.8544 108.407 90.8988 108.982C90.2507 109.372 89.5949 109.594 88.9314 109.648C88.2704 109.706 87.6658 109.594 87.1175 109.313C86.5676 109.038 86.1277 108.627 85.7977 108.078L86.6266 107.58C87.0265 108.245 87.5762 108.641 88.2756 108.769C88.9734 108.904 89.7066 108.74 90.4752 108.278C91.2189 107.83 91.7131 107.307 91.9577 106.707C92.1981 106.11 92.1571 105.543 91.8347 105.007C91.5373 104.513 91.0963 104.226 90.5117 104.148C89.9254 104.076 89.1235 104.182 88.1061 104.466C87.087 104.757 86.2756 104.908 85.6719 104.921C85.0666 104.94 84.5422 104.839 84.0988 104.619C83.6553 104.399 83.2874 104.046 82.995 103.56C82.5326 102.792 82.4689 101.99 82.8039 101.155C83.1372 100.326 83.8066 99.6094 84.812 99.0045C85.5017 98.5897 86.207 98.3323 86.9278 98.2326C87.6486 98.1328 88.2889 98.2144 88.8488 98.4773C89.4087 98.7403 89.8611 99.1584 90.206 99.7318L89.3834 100.227C88.9685 99.5369 88.3856 99.1464 87.6346 99.0549C86.882 98.9702 86.0799 99.1839 85.2282 99.6963C84.4679 100.154 83.9592 100.686 83.7021 101.293C83.4434 101.907 83.4814 102.493 83.8163 103.049Z" fill="#1C1C1E"/>
<path d="M92.8707 96.6945C93.3155 97.1411 93.8242 97.3358 94.3968 97.2787C94.9695 97.2284 95.7895 96.9044 96.857 96.3066C97.921 95.7122 98.7839 95.3625 99.4458 95.2576C100.382 95.1052 101.167 95.3468 101.8 95.9824C102.412 96.5973 102.657 97.3486 102.536 98.2363C102.414 99.1309 101.958 99.9716 101.168 100.759C100.632 101.292 100.048 101.665 99.417 101.876C98.7891 102.091 98.1754 102.127 97.5757 101.985C96.976 101.851 96.4503 101.556 95.9987 101.103L96.6841 100.42C97.2315 100.97 97.8601 101.223 98.5699 101.18C99.2796 101.144 99.9523 100.809 100.588 100.176C101.203 99.5638 101.557 98.9371 101.651 98.2962C101.741 97.6587 101.566 97.1184 101.125 96.6752C100.717 96.2664 100.221 96.094 99.6343 96.1579C99.0479 96.2288 98.2948 96.5238 97.3749 97.043C96.455 97.5691 95.7035 97.9104 95.1203 98.067C94.5372 98.2303 94.004 98.2584 93.5208 98.1511C93.0376 98.0439 92.5959 97.7893 92.1956 97.3873C91.5626 96.7518 91.3088 95.9885 91.434 95.0973C91.5592 94.2131 92.0375 93.3569 92.8689 92.5289C93.4391 91.961 94.0622 91.5423 94.7382 91.2728C95.4141 91.0033 96.0554 90.9292 96.662 91.0504C97.2685 91.1717 97.8079 91.4693 98.2801 91.9434L97.5999 92.6208C97.0319 92.0506 96.3724 91.811 95.6214 91.902C94.8704 91.9999 94.1428 92.3995 93.4385 93.1009C92.8099 93.7271 92.4434 94.3657 92.3393 95.0169C92.2351 95.6749 92.4122 96.2341 92.8707 96.6945Z" fill="#1C1C1E"/>
<path d="M103.121 88.594L105.82 84.0136L101.822 81.658L98.7173 86.9276L98.0155 86.5141L101.608 80.4174L111.408 86.1919L107.834 92.2573L107.126 91.8401L110.212 86.6018L106.522 84.4271L103.823 89.0075L103.121 88.594Z" fill="#1C1C1E"/>
<path d="M108.676 73.5068L109.495 70.3083L104.909 69.1331L105.151 68.189L116.169 71.0125L115.251 74.5985C114.95 75.7726 114.428 76.6151 113.687 77.1258C112.949 77.6424 112.068 77.7695 111.044 77.5072C110.34 77.3266 109.77 76.9605 109.336 76.4088C108.902 75.8571 108.67 75.2072 108.642 74.4591L103.251 76.0133L103.152 75.988L103.407 74.9946L108.676 73.5068ZM110.291 70.5123L109.56 73.3656C109.361 74.1452 109.421 74.8288 109.741 75.4163C110.065 76.005 110.58 76.3896 111.284 76.5702C112.064 76.77 112.731 76.678 113.284 76.2944C113.838 75.9108 114.23 75.2704 114.46 74.3733L115.131 71.7525L110.291 70.5123Z" fill="#1C1C1E"/>
<path d="M104.787 54.3611L116.143 53.7059L116.326 56.8788C116.379 57.8082 116.214 58.653 115.831 59.4133C115.452 60.1782 114.878 60.7893 114.108 61.2465C113.343 61.7083 112.457 61.9683 111.45 62.0263L110.405 62.0867C109.393 62.145 108.481 61.9913 107.668 61.6253C106.86 61.2591 106.222 60.7156 105.753 59.9948C105.284 59.2739 105.022 58.4294 104.966 57.4614L104.787 54.3611ZM115.377 54.7117L105.655 55.2725L105.779 57.4217C105.848 58.6173 106.298 59.5529 107.129 60.2286C107.964 60.9089 109.06 61.2099 110.415 61.1318L111.41 61.0744C112.717 60.999 113.742 60.5829 114.485 59.8261C115.228 59.0693 115.568 58.1075 115.506 56.9407L115.377 54.7117Z" fill="#1C1C1E"/>
<path d="M106.563 43.0752L104.26 38.2832L100.078 40.2926L102.727 45.8057L101.993 46.1584L98.9282 39.7801L109.181 34.8542L112.23 41.1998L111.489 41.5557L108.856 36.0754L104.995 37.9305L107.297 42.7224L106.563 43.0752Z" fill="#1C1C1E"/>
<path d="M97.1223 30.0616L94.9216 27.6001L91.392 30.7557L90.7424 30.0292L99.2221 22.448L101.689 25.2077C102.497 26.1113 102.907 27.0133 102.918 27.9136C102.937 28.8142 102.552 29.6168 101.764 30.3213C101.222 30.806 100.601 31.0752 99.9006 31.1287C99.2005 31.1823 98.5318 31.0126 97.8945 30.6199L96.1843 35.9633L96.1084 36.0312L95.425 35.2667L97.1223 30.0616ZM95.5342 27.0524L97.4974 29.2482C98.0338 29.8482 98.6351 30.1789 99.3013 30.2402C99.9711 30.2982 100.577 30.0849 101.119 29.6002C101.719 29.0637 102.014 28.4587 102.004 27.7851C101.993 27.1115 101.679 26.4295 101.062 25.7392L99.259 23.7223L95.5342 27.0524Z" fill="#1C1C1E"/>
<path d="M88.8696 22.5372C88.3376 23.4393 87.7143 24.1384 86.9997 24.6345C86.285 25.1305 85.529 25.3911 84.7318 25.4163C83.9387 25.444 83.1642 25.2349 82.4083 24.7892C81.2639 24.1144 80.5802 23.1596 80.3571 21.9248C80.134 20.69 80.4325 19.3772 81.2526 17.9865L81.8474 16.9779C82.3744 16.0841 82.9986 15.3883 83.7199 14.8906C84.4437 14.3887 85.2033 14.1218 85.9988 14.0899C86.7986 14.0606 87.5764 14.2687 88.3323 14.7145C89.0841 15.1578 89.641 15.7311 90.0031 16.4343C90.3652 17.1375 90.507 17.9135 90.4287 18.7622C90.3503 19.611 90.0609 20.4788 89.5604 21.3657L88.8696 22.5372ZM88.6644 20.9809C89.3589 19.8032 89.6359 18.7225 89.4954 17.7391C89.3615 16.7539 88.8289 15.9867 87.8975 15.4375C86.9871 14.9006 86.0621 14.8083 85.1227 15.1605C84.1874 15.5153 83.3651 16.294 82.6558 17.4968L82.0537 18.518C81.369 19.679 81.0954 20.7587 81.2327 21.7572C81.37 22.7557 81.9023 23.5283 82.8294 24.075C83.7649 24.6267 84.692 24.7202 85.6105 24.3557C86.5333 23.9936 87.3468 23.2153 88.0512 22.0208L88.6644 20.9809Z" fill="#1C1C1E"/>
<path d="M65.3274 7.97516L67.7601 18.578L73.6128 9.40158L74.8743 9.61875L72.9444 20.8284L71.9983 20.6655L72.8386 15.7846L73.7716 10.7942L67.8986 19.9597L67.1676 19.8338L64.706 9.27031L63.9346 14.2221L63.0894 19.1317L62.1433 18.9689L64.0732 7.75922L65.3274 7.97516Z" fill="#1C1C1E"/>
<path d="M51.275 15.3734L46.1377 16.7416L47.3318 21.2253L53.2422 19.6512L53.4518 20.4383L46.6138 22.2595L43.6865 11.268L50.4894 9.45626L50.7009 10.2504L44.8257 11.8151L45.9281 15.9545L51.0654 14.5863L51.275 15.3734Z" fill="#1C1C1E"/>
<path d="M36.7291 22.2213L33.9003 23.9243L36.3423 27.9805L35.5074 28.4831L29.6407 18.7383L32.8121 16.829C33.8506 16.2038 34.8131 15.9696 35.6997 16.1262C36.588 16.2762 37.3047 16.804 37.8499 17.7095C38.225 18.3326 38.3736 18.993 38.2956 19.6908C38.2177 20.3885 37.9263 21.0138 37.4216 21.5667L42.3523 24.2435L42.4048 24.3307L41.5263 24.8596L36.7291 22.2213ZM33.4765 23.2202L35.9999 21.701C36.6894 21.2859 37.1264 20.7568 37.3109 20.1138C37.4929 19.4666 37.3963 18.8315 37.0212 18.2084C36.6061 17.5189 36.0667 17.1164 35.4029 17.001C34.7392 16.8856 34.0107 17.0667 33.2173 17.5443L30.8995 18.9397L33.4765 23.2202Z" fill="#1C1C1E"/>
<path d="M27.7976 28.9257C28.5847 29.6166 29.1552 30.3594 29.5093 31.154C29.8633 31.9486 29.9784 32.7399 29.8545 33.5279C29.7337 34.3122 29.3839 35.0341 28.805 35.6937C27.9286 36.6921 26.863 37.1857 25.6083 37.1746C24.3535 37.1635 23.1195 36.6254 21.9061 35.5603L21.0261 34.7879C20.2463 34.1034 19.6792 33.3604 19.3247 32.5589C18.9665 31.7543 18.846 30.9582 18.9631 30.1707C19.0834 29.3795 19.433 28.6542 20.0119 27.9946C20.5877 27.3387 21.2547 26.8985 22.0131 26.6739C22.7715 26.4493 23.5604 26.4547 24.3796 26.69C25.1989 26.9252 25.9975 27.3714 26.7755 28.0285L27.7976 28.9257ZM26.2303 28.8371C25.2028 27.9351 24.1928 27.4614 23.2004 27.4161C22.2075 27.3639 21.3544 27.7441 20.6412 28.5566C19.9439 29.351 19.6807 30.2425 19.8515 31.2311C20.0256 32.2161 20.6373 33.1692 21.6867 34.0904L22.5776 34.8724C23.5906 35.7616 24.6004 36.2319 25.6069 36.2832C26.6135 36.3345 27.4718 35.9557 28.1819 35.1467C28.8983 34.3305 29.1631 33.4372 28.9763 32.4668C28.7927 31.4927 28.1798 30.5482 27.1376 29.6335L26.2303 28.8371Z" fill="#1C1C1E"/>
<path d="M20.7552 47.8969L23.0725 42.7829L23.8144 43.1191L21.0979 49.1141L10.7374 44.4194L11.1366 43.5384L20.7552 47.8969Z" fill="#1C1C1E"/>
<path d="M14.5873 53.4284L13.7542 58.6791L18.3369 59.4062L19.2953 53.3654L20.0998 53.493L18.9909 60.482L7.7569 58.6995L8.86012 51.7465L9.67178 51.8753L8.719 57.8802L12.9497 58.5514L13.7828 53.3007L14.5873 53.4284Z" fill="#1C1C1E"/>
<path d="M15.0932 70.3977L19.7039 69.9463L19.7975 70.9017L8.47705 72.0101L8.10003 68.1594C7.98475 66.982 8.19539 66.0236 8.73195 65.2841C9.26322 64.5404 10.0548 64.117 11.1068 64.014C12.1683 63.91 13.0208 64.1578 13.6641 64.7574C14.3074 65.357 14.69 66.2792 14.8119 67.5242L15.0932 70.3977ZM14.2826 70.4771L13.9991 67.5818C13.9079 66.6505 13.6189 65.9627 13.1321 65.5183C12.6452 65.0739 12.0061 64.8905 11.2148 64.968C10.4331 65.0445 9.83444 65.3491 9.41892 65.8819C9.00293 66.4098 8.83381 67.1205 8.91156 68.0142L9.20141 70.9746L14.2826 70.4771Z" fill="#1C1C1E"/>
<path d="M17.0147 83.1197L11.3574 81.9304L10.9318 80.863L17.5356 82.2857L21.4544 76.5422L21.8827 77.6164L18.4942 82.5298L24.3419 83.7842L24.7648 84.8448L17.9666 83.3666L14.156 88.9494L13.7304 87.882L17.0147 83.1197Z" fill="#1C1C1E"/>
<path d="M23.3387 91.6083L26.6582 95.761L30.2825 92.8638L26.4636 88.0862L27.0998 87.5776L31.5182 93.1051L22.6334 100.207L18.2377 94.7082L18.8796 94.195L22.6759 98.9442L26.0219 96.2695L22.7024 92.1169L23.3387 91.6083Z" fill="#1C1C1E"/>
</svg>
