<svg width="129" height="94" viewBox="0 0 129 94" fill="none" xmlns="http://www.w3.org/2000/svg">
<path d="M84.7021 27.1122C84.7021 27.1018 84.7082 27.0935 84.7082 27.0831C84.7082 27.0539 84.6937 27.031 84.6917 27.0018C84.6687 26.8602 84.6375 26.7185 84.6062 26.5769C84.5916 26.5352 84.5875 26.4915 84.5709 26.4519C84.4854 26.0894 84.3978 25.7268 84.2603 25.3705L82.0979 20.029C81.1417 17.606 80.152 15.1019 74.852 15.1019H70.2271V11.4561C70.2271 8.87064 68.1229 6.76855 65.5396 6.76855H48.8729C46.2896 6.76855 44.1854 8.87064 44.1854 11.4561V34.3727C44.1854 36.7998 46.0457 38.7768 48.4103 39.0143C48.3916 39.2039 48.3521 39.3873 48.3521 39.5811C48.3521 42.7394 50.9208 45.3102 54.0813 45.3102C57.2417 45.3102 59.8104 42.7394 59.8104 39.5811C59.8104 39.4019 59.7729 39.2331 59.7583 39.0602H69.2396C69.2229 39.2331 69.1875 39.4019 69.1875 39.5811C69.1875 42.7394 71.7562 45.3102 74.9166 45.3102C78.077 45.3102 80.6458 42.7394 80.6458 39.5811C80.6458 39.3873 80.6084 39.2018 80.5876 39.0143C82.9521 38.7768 84.8125 36.7998 84.8125 34.3727V28.2893C84.8125 27.8955 84.7604 27.5039 84.7021 27.1122ZM74.8541 18.2289C78.027 18.2289 78.323 18.9727 79.198 21.1894L80.95 25.5206H70.2291V18.2289H74.8541ZM54.0833 42.1873C52.6479 42.1873 51.4791 41.0185 51.4791 39.5831C51.4791 38.1477 52.6479 36.9789 54.0833 36.9789C55.5187 36.9789 56.6875 38.1477 56.6875 39.5831C56.6875 41.0185 55.5187 42.1873 54.0833 42.1873ZM74.9166 42.1873C73.4812 42.1873 72.3125 41.0185 72.3125 39.5831C72.3125 38.1477 73.4812 36.9789 74.9166 36.9789C76.352 36.9789 77.5208 38.1477 77.5208 39.5831C77.5208 41.0185 76.352 42.1873 74.9166 42.1873ZM80.125 35.9373H79.3C78.2479 34.6748 76.6854 33.8539 74.9166 33.8539C73.1479 33.8539 71.5854 34.6748 70.5333 35.9373H58.4646C57.4125 34.6748 55.85 33.8539 54.0813 33.8539C52.3125 33.8539 50.75 34.6748 49.6979 35.9373H48.8729C48.0125 35.9373 47.3104 35.2373 47.3104 34.3748V28.6456H60.3313C61.1938 28.6456 61.8938 27.9456 61.8938 27.0831C61.8938 26.2206 61.1938 25.5206 60.3313 25.5206H47.3104V11.4581C47.3104 10.5956 48.0125 9.89559 48.8729 9.89559H65.5396C66.4 9.89559 67.1021 10.5956 67.1021 11.4581V28.6456H81.6854V34.3748C81.6875 35.2373 80.9854 35.9373 80.125 35.9373Z" fill="#48484A"/>
<path d="M3.60506 82.096C3.00773 83.3547 2.70906 84.4533 2.70906 85.392C2.70906 86.4053 3.00773 87.1787 3.60506 87.712C4.2024 88.2453 5.06106 88.512 6.18106 88.512C7.04506 88.512 7.76506 88.352 8.34106 88.032C8.92773 87.7227 9.35973 87.3227 9.63706 86.832C9.9144 86.352 10.0531 85.8453 10.0531 85.312C10.0531 84.4267 9.75973 83.0933 9.17306 81.312L10.3571 80.768C10.6664 81.7493 10.8957 82.5973 11.0451 83.312C11.1944 84.016 11.2691 84.6827 11.2691 85.312C11.2691 86.08 11.0664 86.8213 10.6611 87.536C10.2664 88.2507 9.68506 88.832 8.91706 89.28C8.14906 89.728 7.23706 89.952 6.18106 89.952C5.16773 89.952 4.30373 89.7493 3.58906 89.344C2.88506 88.9387 2.35173 88.4 1.98906 87.728C1.63706 87.056 1.46106 86.32 1.46106 85.52C1.46106 84.88 1.56773 84.208 1.78106 83.504C1.9944 82.8 2.23973 82.16 2.51706 81.584L3.60506 82.096ZM6.53306 79.888L7.66906 81.024L6.53306 82.16L5.39706 81.024L6.53306 79.888ZM16.0629 86C15.3056 86 14.7136 85.8773 14.2869 85.632C13.8603 85.376 13.5563 84.9973 13.3749 84.496C13.2043 83.9947 13.1189 83.3333 13.1189 82.512C13.1189 81.296 13.0923 79.92 13.0389 78.384C12.9963 76.8373 12.9269 75.7547 12.8309 75.136L14.1109 74.864C14.1963 75.408 14.2603 76.3627 14.3029 77.728C14.3563 79.0827 14.3829 80.3147 14.3829 81.424V82.096L14.3669 82.656C14.3669 83.1573 14.4096 83.5413 14.4949 83.808C14.5803 84.064 14.7403 84.256 14.9749 84.384C15.2203 84.5013 15.5829 84.56 16.0629 84.56H16.1429L16.2229 85.28L16.1429 86H16.0629ZM24.9183 86C24.3743 85.9893 23.9263 85.84 23.5743 85.552C23.233 85.264 22.9983 84.8533 22.8703 84.32C22.625 84.8107 22.305 85.2107 21.9103 85.52C21.5263 85.8293 21.105 85.9893 20.6463 86H20.5983C20.1076 86 19.697 85.856 19.3663 85.568C19.0463 85.2693 18.8543 84.8693 18.7903 84.368C18.4596 84.9013 18.065 85.3067 17.6063 85.584C17.1476 85.8613 16.641 86 16.0863 86H16.0223L15.9423 85.28L16.0223 84.56H16.1023C16.497 84.56 16.8703 84.4693 17.2223 84.288C17.5743 84.1067 17.8463 83.8667 18.0383 83.568C18.241 83.28 18.3956 82.976 18.5023 82.656C18.6196 82.336 18.737 81.9573 18.8543 81.52L20.0543 81.648C20.033 81.712 19.9903 81.872 19.9263 82.128C19.8623 82.384 19.809 82.624 19.7663 82.848C19.7343 83.072 19.7183 83.2747 19.7183 83.456C19.7183 84.192 20.017 84.56 20.6143 84.56H20.6463C21.2436 84.56 21.7556 84.1867 22.1823 83.44C22.321 83.184 22.4276 82.88 22.5023 82.528C22.5876 82.176 22.6676 81.7867 22.7423 81.36L23.9263 81.424C23.9156 81.4667 23.8783 81.664 23.8143 82.016C23.7503 82.368 23.7183 82.7093 23.7183 83.04C23.7183 83.552 23.8143 83.936 24.0063 84.192C24.209 84.4373 24.5236 84.56 24.9503 84.56C25.7503 84.56 26.1503 84.1173 26.1503 83.232C26.1503 82.8693 26.0436 82.3627 25.8303 81.712C25.6276 81.0507 25.4463 80.5493 25.2863 80.208L26.4223 79.584C26.6356 80.032 26.849 80.6187 27.0623 81.344C27.2756 82.0587 27.3823 82.688 27.3823 83.232C27.3823 83.744 27.281 84.2133 27.0783 84.64C26.8756 85.056 26.5876 85.3867 26.2143 85.632C25.8516 85.8773 25.441 86 24.9823 86H24.9503H24.9183ZM29.2097 85.904C29.2737 85.2427 29.3057 84.3147 29.3057 83.12C29.3057 81.872 29.2737 80.5867 29.2097 79.264C29.1564 77.9307 29.0924 77.0293 29.0177 76.56L30.2977 76.288C30.3724 76.768 30.4417 77.6853 30.5057 79.04C30.5804 80.3947 30.6177 81.7067 30.6177 82.976C30.6177 84.3413 30.575 85.3707 30.4897 86.064L29.2097 85.904ZM27.0497 75.392C27.231 74.9333 27.4657 74.5867 27.7537 74.352C28.0417 74.1067 28.3564 73.984 28.6977 73.984C28.8684 73.984 29.0284 74.0053 29.1777 74.048C29.327 74.0907 29.4924 74.1547 29.6737 74.24C29.8124 74.2933 29.951 74.3467 30.0897 74.4C30.2284 74.4427 30.367 74.464 30.5057 74.464C30.7084 74.464 30.911 74.4053 31.1137 74.288C31.3164 74.1707 31.487 74.0107 31.6257 73.808L32.1537 74.272C31.9404 74.5813 31.6844 74.8267 31.3857 75.008C31.0977 75.1893 30.8044 75.28 30.5057 75.28C30.3244 75.28 30.159 75.2587 30.0097 75.216C29.871 75.1733 29.7057 75.1093 29.5137 75.024C29.343 74.9493 29.199 74.896 29.0817 74.864C28.9644 74.8213 28.8364 74.8 28.6977 74.8C28.4737 74.8 28.271 74.88 28.0897 75.04C27.9084 75.1893 27.759 75.4133 27.6417 75.712L27.0497 75.392ZM37.4409 89.312C38.9876 88.9707 40.1663 88.5227 40.9769 87.968C41.7983 87.424 42.2783 86.7467 42.4169 85.936C42.0756 86.0107 41.6649 86.048 41.1849 86.048C40.4916 86.048 39.8623 85.9413 39.2969 85.728C38.7316 85.504 38.3263 85.152 38.0809 84.672C37.9103 84.3307 37.8249 83.9307 37.8249 83.472C37.8249 82.9173 37.9423 82.3627 38.1769 81.808C38.4223 81.2533 38.7423 80.7947 39.1369 80.432C39.5423 80.0693 39.9743 79.888 40.4329 79.888C41.0623 79.888 41.6169 80.1653 42.0969 80.72C42.5769 81.2747 42.9449 81.9733 43.2009 82.816C43.4569 83.648 43.5849 84.4693 43.5849 85.28C43.5849 86.6027 43.0783 87.728 42.0649 88.656C41.0623 89.584 39.6596 90.2293 37.8569 90.592L37.4409 89.312ZM39.1049 83.872C39.2649 84.128 39.5476 84.32 39.9529 84.448C40.3689 84.576 40.8436 84.64 41.3769 84.64C41.6863 84.64 42.0276 84.6133 42.4009 84.56C42.2943 83.696 42.0649 82.944 41.7129 82.304C41.3716 81.664 40.9343 81.328 40.4009 81.296C40.1663 81.2853 39.9369 81.3813 39.7129 81.584C39.4889 81.7867 39.3076 82.048 39.1689 82.368C39.0303 82.688 38.9609 82.992 38.9609 83.28C38.9609 83.5147 39.0089 83.712 39.1049 83.872ZM58.0954 84.56L58.1754 85.28L58.0954 86H57.7594C56.8741 86 56.0741 85.8773 55.3594 85.632C54.6448 85.3867 53.9781 85.0293 53.3594 84.56C52.6128 84.944 52.0261 85.344 51.5994 85.76C51.1728 86.1653 50.9648 86.6187 50.9754 87.12C50.9328 87.2587 50.9114 87.424 50.9114 87.616C50.9114 88.0427 51.0501 88.4267 51.3274 88.768C51.6048 89.12 51.9888 89.3973 52.4794 89.6C52.9701 89.8027 53.5301 89.904 54.1594 89.904C54.7994 89.904 55.4181 89.8187 56.0154 89.648C56.6234 89.488 57.0928 89.3173 57.4234 89.136L57.9194 90.272C57.4821 90.592 56.9221 90.848 56.2394 91.04C55.5568 91.2427 54.8634 91.344 54.1594 91.344C53.3274 91.344 52.5701 91.1733 51.8874 90.832C51.2048 90.5013 50.6608 90.0427 50.2554 89.456C49.8608 88.8693 49.6634 88.2187 49.6634 87.504C49.6634 87.312 49.6794 87.12 49.7114 86.928C49.8288 86.192 50.1168 85.568 50.5754 85.056C51.0341 84.5333 51.6208 84.0693 52.3354 83.664C51.7488 83.0773 51.0448 82.2453 50.2234 81.168L50.2714 80.208C50.6981 79.7813 51.2421 79.4613 51.9034 79.248C52.5648 79.024 53.2474 78.912 53.9514 78.912C54.7514 78.912 55.4501 79.0507 56.0474 79.328C56.6448 79.5947 57.0181 79.9733 57.1674 80.464C57.2208 80.6133 57.2474 80.7893 57.2474 80.992C57.2474 81.5147 57.0181 82.0267 56.5594 82.528C56.1008 83.0187 55.4874 83.4667 54.7194 83.872C55.5834 84.3307 56.5968 84.56 57.7594 84.56H58.0954ZM51.5354 80.88C52.3354 81.8827 53.0021 82.608 53.5354 83.056L53.5834 83.04C54.4794 82.624 55.1301 82.256 55.5354 81.936C55.9514 81.6053 56.1274 81.264 56.0634 80.912C55.9568 80.688 55.7114 80.5067 55.3274 80.368C54.9434 80.2293 54.5008 80.16 53.9994 80.16C53.5408 80.16 53.0928 80.224 52.6554 80.352C52.2288 80.4693 51.8554 80.6453 51.5354 80.88ZM57.8958 85.28L57.9758 84.56H58.8878C60.0291 84.56 60.8345 84.4533 61.3038 84.24C61.7731 84.016 62.0078 83.6533 62.0078 83.152C61.9971 82.8213 61.8851 82.32 61.6718 81.648C61.4691 80.9653 61.2931 80.4747 61.1438 80.176L62.2958 79.568C62.5091 79.984 62.7171 80.5493 62.9198 81.264C63.1331 81.968 63.2398 82.5813 63.2398 83.104C63.2398 84.0533 62.8931 84.7733 62.1998 85.264C61.5065 85.7547 60.4611 86 59.0638 86H57.9758L57.8958 85.28ZM59.1758 87.456L60.3118 88.592L59.1758 89.728L58.0398 88.592L59.1758 87.456ZM62.0398 87.456L63.1758 88.592L62.0398 89.728L60.9038 88.592L62.0398 87.456ZM69.8344 86C69.4291 86 69.0718 85.904 68.7624 85.712V85.952C68.7624 86.5813 68.5758 87.1947 68.2024 87.792C67.8291 88.4 67.3118 88.944 66.6504 89.424C65.9998 89.9147 65.2638 90.304 64.4424 90.592L63.8984 89.344C64.5811 89.1093 65.1998 88.8 65.7544 88.416C66.3091 88.032 66.7411 87.6213 67.0504 87.184C67.3704 86.7467 67.5304 86.336 67.5304 85.952C67.5304 85.408 67.2584 84.0747 66.7144 81.952L67.9464 81.488C68.1171 82.0427 68.2558 82.5813 68.3624 83.104C68.5224 83.6373 68.7144 84.016 68.9384 84.24C69.1624 84.4533 69.4611 84.56 69.8344 84.56H69.9464L70.0264 85.28L69.9464 86H69.8344ZM78.7152 86C78.1712 85.9893 77.7232 85.84 77.3712 85.552C77.0299 85.264 76.7952 84.8533 76.6672 84.32C76.4219 84.8107 76.1019 85.2107 75.7072 85.52C75.3232 85.8293 74.9019 85.9893 74.4432 86H74.3952C73.9045 86 73.4939 85.856 73.1632 85.568C72.8432 85.2693 72.6512 84.8693 72.5872 84.368C72.2565 84.9013 71.8619 85.3067 71.4032 85.584C70.9445 85.8613 70.4379 86 69.8832 86H69.8192L69.7392 85.28L69.8192 84.56H69.8992C70.2939 84.56 70.6672 84.4693 71.0192 84.288C71.3712 84.1067 71.6432 83.8667 71.8352 83.568C72.0379 83.28 72.1925 82.976 72.2992 82.656C72.4165 82.336 72.5339 81.9573 72.6512 81.52L73.8512 81.648C73.8299 81.712 73.7872 81.872 73.7232 82.128C73.6592 82.384 73.6059 82.624 73.5632 82.848C73.5312 83.072 73.5152 83.2747 73.5152 83.456C73.5152 84.192 73.8139 84.56 74.4112 84.56H74.4432C75.0405 84.56 75.5525 84.1867 75.9792 83.44C76.1179 83.184 76.2245 82.88 76.2992 82.528C76.3845 82.176 76.4645 81.7867 76.5392 81.36L77.7232 81.424C77.7125 81.4667 77.6752 81.664 77.6112 82.016C77.5472 82.368 77.5152 82.7093 77.5152 83.04C77.5152 83.552 77.6112 83.936 77.8032 84.192C78.0059 84.4373 78.3205 84.56 78.7472 84.56C79.5472 84.56 79.9472 84.1173 79.9472 83.232C79.9472 82.8693 79.8405 82.3627 79.6272 81.712C79.4245 81.0507 79.2432 80.5493 79.0832 80.208L80.2192 79.584C80.4325 80.032 80.6459 80.6187 80.8592 81.344C81.0725 82.0587 81.1792 82.688 81.1792 83.232C81.1792 83.744 81.0779 84.2133 80.8752 84.64C80.6725 85.056 80.3845 85.3867 80.0112 85.632C79.6485 85.8773 79.2379 86 78.7792 86H78.7472H78.7152ZM97.8194 86C97.1901 86 96.6674 85.7813 96.2514 85.344C96.1874 86.8267 95.7501 87.9733 94.9394 88.784C94.1288 89.6053 93.0088 90.016 91.5794 90.016C90.7581 90.016 90.0114 89.8453 89.3394 89.504C88.6781 89.1733 88.1501 88.704 87.7554 88.096C87.3714 87.488 87.1794 86.784 87.1794 85.984C87.1794 85.4187 87.2808 84.784 87.4834 84.08C87.6861 83.376 87.9314 82.7307 88.2194 82.144L89.3074 82.672C88.7208 83.8667 88.4274 84.9067 88.4274 85.792C88.4274 86.624 88.7101 87.296 89.2754 87.808C89.8514 88.32 90.6194 88.576 91.5794 88.576C92.7848 88.576 93.6701 88.2507 94.2354 87.6C94.8008 86.9493 95.0568 85.9733 95.0034 84.672C94.8114 79.84 94.6408 76.6613 94.4914 75.136L95.7554 74.864C95.8408 75.7173 95.9794 78.32 96.1714 82.672C96.2034 83.1733 96.2728 83.5573 96.3794 83.824C96.4861 84.0907 96.6461 84.2827 96.8594 84.4C97.0834 84.5067 97.4034 84.56 97.8194 84.56H97.9954L98.0754 85.28L97.9954 86H97.8194ZM97.8341 84.56H98.4741C99.6154 84.56 100.421 84.4533 100.89 84.24C101.359 84.016 101.594 83.6533 101.594 83.152C101.583 82.8213 101.471 82.32 101.258 81.648C101.055 80.9653 100.879 80.4747 100.73 80.176L101.882 79.568C102.095 79.984 102.303 80.5493 102.506 81.264C102.719 81.968 102.826 82.5813 102.826 83.104C102.826 84.0533 102.479 84.7733 101.786 85.264C101.093 85.7547 100.047 86 98.6501 86H97.8341V84.56ZM98.0101 87.488L99.1461 88.624L98.0101 89.76L96.8741 88.624L98.0101 87.488ZM100.874 87.488L102.01 88.624L100.874 89.76L99.7381 88.624L100.874 87.488ZM103.957 89.312C105.471 88.9813 106.634 88.544 107.445 88C108.266 87.4667 108.757 86.8053 108.917 86.016C107.765 86.0267 106.826 85.9467 106.101 85.776C105.375 85.5947 104.874 85.2267 104.597 84.672C104.426 84.3307 104.341 83.9307 104.341 83.472C104.341 82.9173 104.458 82.3627 104.693 81.808C104.938 81.2533 105.258 80.7947 105.653 80.432C106.058 80.0693 106.49 79.888 106.949 79.888C107.525 79.888 108.031 80.1173 108.469 80.576C108.917 81.0347 109.274 81.6213 109.541 82.336C109.818 83.0507 109.994 83.792 110.069 84.56H110.661L110.741 85.28L110.661 86H110.053C109.871 87.152 109.285 88.1227 108.293 88.912C107.311 89.7013 106.005 90.2613 104.373 90.592L103.957 89.312ZM105.621 83.872C105.791 84.1387 106.165 84.32 106.741 84.416C107.327 84.512 108.058 84.56 108.933 84.56C108.826 83.696 108.597 82.944 108.245 82.304C107.893 81.664 107.45 81.328 106.917 81.296C106.682 81.2853 106.453 81.3813 106.229 81.584C106.005 81.7867 105.823 82.048 105.685 82.368C105.546 82.688 105.477 82.992 105.477 83.28C105.477 83.5147 105.525 83.712 105.621 83.872ZM122.571 86C121.643 85.9893 120.88 85.8187 120.283 85.488C119.696 85.1573 119.264 84.6613 118.987 84C117.718 84.64 116.534 85.136 115.435 85.488C114.347 85.8293 113.174 86 111.915 86H110.443V84.56H111.915C113.248 84.56 114.491 84.4 115.643 84.08C116.806 83.7493 117.968 83.2747 119.131 82.656C119.355 82.528 119.579 82.416 119.803 82.32C119.142 82.2027 118.427 81.952 117.659 81.568C117.147 81.3013 116.688 81.0987 116.283 80.96C115.878 80.8213 115.478 80.752 115.083 80.752C114.635 80.752 114.23 80.8853 113.867 81.152C113.504 81.4187 113.232 81.7333 113.051 82.096L112.187 81.504C112.528 80.8107 112.95 80.288 113.451 79.936C113.952 79.5733 114.512 79.392 115.131 79.392C115.579 79.392 115.995 79.4667 116.379 79.616C116.774 79.7653 117.355 80.032 118.123 80.416C118.838 80.7787 119.398 81.0507 119.803 81.232C120.219 81.4027 120.688 81.5413 121.211 81.648L121.259 82.912C120.971 82.9973 120.534 83.1947 119.947 83.504C120.192 83.824 120.539 84.08 120.987 84.272C121.435 84.4533 121.963 84.5493 122.571 84.56H122.731L122.811 85.28L122.731 86H122.571ZM122.568 84.56H123.208C124.35 84.56 125.155 84.4533 125.624 84.24C126.094 84.016 126.328 83.6533 126.328 83.152C126.318 82.8213 126.206 82.32 125.992 81.648C125.79 80.9653 125.614 80.4747 125.464 80.176L126.616 79.568C126.83 79.984 127.038 80.5493 127.24 81.264C127.454 81.968 127.56 82.5813 127.56 83.104C127.56 84.0533 127.214 84.7733 126.52 85.264C125.827 85.7547 124.782 86 123.384 86H122.568V84.56ZM124.088 76.384L125.224 77.52L124.088 78.656L122.952 77.52L124.088 76.384ZM126.952 76.384L128.088 77.52L126.952 78.656L125.816 77.52L126.952 76.384Z" fill="#48484A"/>
</svg>
