<svg width="100" height="39" viewBox="0 0 100 39" fill="none" xmlns="http://www.w3.org/2000/svg">
<path d="M11.6266 0.401871C9.65757 0.597321 8.15051 0.982468 6.71852 1.66079C4.76686 2.5863 3.15009 4.00618 1.86823 5.92042C-0.395237 9.29479 -0.614655 13.5889 1.27927 17.3887C3.1039 21.039 6.50488 23.4476 10.9741 24.2581C12.3021 24.4938 12.2617 24.3558 10.8008 23.6833C8.77989 22.7463 8.31796 22.5163 7.79829 22.2002C6.99568 21.7115 6.43559 21.2804 5.77156 20.6423C4.3338 19.2454 3.35796 17.4864 2.93068 15.4917C2.74013 14.6064 2.73436 13.0371 2.9249 12.1058C3.19051 10.8066 3.69864 9.56497 4.38576 8.53024C4.92276 7.72545 6.0083 6.67348 6.92062 6.06414C8.5547 4.98342 10.2639 4.34534 12.1751 4.10965C12.8911 4.02342 14.5483 4.04067 15.3336 4.13839C17.5682 4.43156 19.7623 5.22486 21.5292 6.38605C23.1171 7.42653 24.6473 9.03611 25.6693 10.7262C26.2929 11.7609 26.2467 11.7436 25.1554 10.5192C23.0363 8.12784 19.976 6.20785 17.1928 5.52378C14.6002 4.8857 11.3263 5.22486 8.97044 6.3803C6.73584 7.47827 5.06134 9.27179 4.42041 11.2665C3.91228 12.8301 3.9527 14.7616 4.51857 16.4919C5.45976 19.3432 7.66548 21.4414 11.1531 22.8152C12.5158 23.3499 13.5493 23.4303 14.6118 23.0797C15.7089 22.7118 16.5692 21.7805 16.7886 20.7343C17.1928 18.7855 15.8937 16.6816 13.7745 15.8366C12.5389 15.3479 11.205 15.3709 10.108 15.9056C9.58828 16.1585 8.97622 16.7678 8.72215 17.2852C8.27177 18.1992 8.25445 19.3259 8.68173 20.2457C8.76257 20.4239 8.82609 20.5906 8.82609 20.6251C8.82609 20.74 8.13319 20.0157 7.7059 19.4581C6.94949 18.4636 6.41827 17.199 6.19307 15.8941C6.05449 15.0605 6.10069 13.8821 6.30278 13.1348C6.76471 11.4217 7.84448 9.86964 9.20141 8.95563C11.3783 7.48976 14.2942 7.3518 17.3834 8.56473C20.3686 9.73742 23.3077 12.4909 24.7166 15.4342C25.5942 17.2622 26.0215 19.2914 25.958 21.2976C25.9234 22.3381 25.8194 22.89 25.5134 23.6028C24.7743 25.3331 23.1402 26.523 20.8652 26.9829C19.6988 27.2186 18.0936 27.2646 16.9676 27.0979C16.2978 27.0001 15.8706 26.8679 14.2249 26.2701C12.1809 25.5228 11.8229 25.4136 11.0838 25.2928C9.10325 24.9594 6.66078 25.7125 4.81305 27.2186C4.27028 27.6612 3.34642 28.627 3.05193 29.0581C2.56113 29.7767 2.232 30.6677 2.31862 31.0298C2.41678 31.4092 2.77477 31.3575 3.62935 30.8344C4.36267 30.386 4.86502 30.2021 5.44821 30.1676C6.08914 30.1273 6.48178 30.2768 6.92062 30.7252C7.63084 31.4495 7.91955 32.1738 8.56625 34.7836C9.0917 36.8875 9.29379 37.4566 9.5825 37.6176C9.94627 37.8188 10.183 37.5601 11.2108 35.8356C11.9961 34.5077 12.4118 33.9443 13.0008 33.3867C13.8265 32.6049 14.5829 32.2715 15.6107 32.2313C16.754 32.191 17.47 32.4785 18.3246 33.335C18.8962 33.9098 19.0637 34.1685 19.924 35.8126C20.5996 37.1002 20.8421 37.4796 21.0615 37.5946C21.7313 37.9338 22.0547 37.4222 23.4636 33.7431C24.1218 32.0301 24.7223 30.9781 25.3806 30.3803C25.9984 29.8169 26.726 29.6215 27.4246 29.8284C28.2042 30.0526 29.2031 30.8516 30.1731 32.0358C30.6928 32.6624 30.7852 32.7371 31.0277 32.7371C31.403 32.7371 31.5243 32.5302 31.8245 31.415C32.2172 29.9549 32.4655 28.6212 32.656 26.9312C32.8004 25.6607 32.8004 22.3151 32.656 21.0964C32.1364 16.6816 30.9065 12.9968 28.77 9.47874C27.2745 7.00689 25.7328 5.32258 23.4924 3.70151C19.9009 1.09744 15.8763 -0.0177689 11.6266 0.401871Z" fill="black"/>
<path d="M52.4556 10.87C51.0583 11.1229 49.8053 11.7783 48.8295 12.7727C47.3859 14.2559 46.6353 16.2736 46.8258 18.1533C47.103 20.8494 48.841 23.0166 51.4394 23.8961C52.138 24.1318 52.7848 24.2295 53.6336 24.2295C54.7537 24.2295 55.6314 24.0225 56.7285 23.5052C58.3395 22.7464 59.6618 21.1655 60.1814 19.395C60.5394 18.1476 60.5279 16.9404 60.1295 15.5838C59.4193 13.1579 57.3406 11.2954 54.8577 10.8642C54.2514 10.755 53.0619 10.7608 52.4556 10.87ZM54.4188 14.0834C54.9732 14.1984 55.2965 14.3421 55.7527 14.664C56.3936 15.1181 56.9017 15.8827 57.1038 16.699C57.2309 17.2048 57.2078 18.0901 57.0576 18.5672C56.717 19.6537 55.8566 20.5217 54.7653 20.8781C54.3842 20.9988 54.1821 21.0276 53.6624 21.0333C52.8771 21.0391 52.369 20.8954 51.7512 20.4815C50.6772 19.7687 50.1691 18.8202 50.1691 17.544C50.1691 16.515 50.4809 15.739 51.1738 15.0606C52.0399 14.2041 53.2409 13.842 54.4188 14.0834Z" fill="black"/>
<path d="M37.9395 11.0538C37.8817 11.0883 37.8702 12.4277 37.8817 17.5381L37.899 23.9706L40.2087 23.9879C42.6685 24.0051 43.5173 23.9591 44.2217 23.7637C45.9193 23.3038 46.8143 22.1656 46.9125 20.3491C46.9991 18.8027 46.4794 17.8197 45.2842 17.2679L44.7934 17.038L45.2264 16.6356C46.0059 15.9055 46.2542 15.3709 46.26 14.3706C46.2658 13.3359 45.9944 12.6519 45.3246 12.0253C44.8684 11.5999 44.395 11.3354 43.7771 11.1687C43.3556 11.0538 43.1593 11.048 40.6706 11.025C39.2098 11.0135 37.9799 11.025 37.9395 11.0538ZM42.8186 14.0372C43.3787 14.2959 43.3787 15.5203 42.8244 15.8135C42.68 15.894 42.4548 15.9227 41.8428 15.94L41.0459 15.963V14.9512V13.9395H41.8312C42.4433 13.9395 42.6627 13.9625 42.8186 14.0372ZM43.0784 18.8027C43.4422 18.9867 43.6732 19.4868 43.627 19.9812C43.5866 20.4583 43.3903 20.7457 42.9745 20.9354C42.6974 21.0619 42.5472 21.0849 41.8543 21.1079L41.0459 21.1424V19.9294V18.7165L41.4386 18.6993C42.0737 18.6648 42.911 18.7223 43.0784 18.8027Z" fill="black"/>
<path d="M60.8339 11.0423C60.7415 11.071 60.7357 11.4159 60.7473 17.5208L60.7646 23.9706L63.3341 23.9879C66.048 24.0051 66.9025 23.9591 67.5781 23.7694C69.8127 23.1313 71.3486 21.0561 71.6547 18.2624C71.7528 17.3311 71.5854 15.9917 71.2447 14.9742C70.5634 12.9508 68.935 11.5251 66.8679 11.1457C66.4637 11.071 65.8228 11.048 63.6517 11.0308C62.162 11.025 60.8917 11.025 60.8339 11.0423ZM65.9094 14.0257C67.1335 14.1235 67.9708 14.9052 68.3807 16.3194C68.6579 17.2564 68.6348 18.2106 68.3288 19.1131C68.1267 19.6995 67.9188 20.0559 67.5666 20.3836C67.1277 20.7975 66.764 20.9469 66.0364 21.0101C65.2627 21.0791 64.079 21.0791 63.9693 21.0101C63.8942 20.9642 63.8827 20.51 63.8653 17.6013C63.8596 15.4399 63.8711 14.1867 63.9115 14.089L63.9693 13.9338L64.7603 13.9682C65.1992 13.9855 65.7188 14.0142 65.9094 14.0257Z" fill="black"/>
<path d="M70.0726 11.048C69.9975 11.0652 69.9687 11.1112 69.9918 11.1974C70.0033 11.2664 70.8175 13.1347 71.7991 15.3478L73.5833 19.3718L73.6122 21.6424L73.641 23.9131H75.2001H76.7591L76.788 21.7287C76.8053 20.5272 76.8399 19.4925 76.8688 19.4293C78.4105 16.0319 80.5989 11.1629 80.5989 11.1284C80.5989 11.0365 80.2236 11.0077 78.9013 11.0077C77.9601 11.0077 77.527 11.0307 77.4289 11.0825C77.3076 11.1399 77.1229 11.5538 76.3664 13.4508C75.8641 14.7155 75.431 15.7732 75.4079 15.7962C75.3848 15.8192 74.9402 14.7902 74.4205 13.5083C73.7854 11.9332 73.4447 11.1514 73.3639 11.094C73.2599 11.025 72.9712 11.0077 71.7067 11.0135C70.8637 11.0192 70.1304 11.0307 70.0726 11.048Z" fill="black"/>
<path d="M40.1103 24.6369C39.6599 24.7001 38.9497 24.9473 38.534 25.1772C37.1366 25.9533 36.4206 27.0857 36.4206 28.5344C36.4206 29.3276 36.6112 29.9485 37.05 30.5866C37.5697 31.3511 38.2337 31.8225 39.8736 32.587C41.1208 33.1619 41.4384 33.3688 41.652 33.7425C41.9523 34.2426 41.883 34.7887 41.473 35.1451C40.9822 35.5763 40.0179 35.4958 39.6773 34.9899C39.608 34.8864 39.4983 34.576 39.4348 34.3001C39.3655 34.0069 39.2789 33.7712 39.2153 33.731C39.0652 33.616 36.259 33.6275 36.2186 33.7367C36.155 33.8977 36.3629 35.3636 36.5015 35.7487C36.8999 36.8294 37.6274 37.4848 38.892 37.9044C40.1738 38.3298 41.8253 38.2666 42.9743 37.7434C44.1291 37.2203 44.9491 36.2833 45.2378 35.1509C45.3533 34.6967 45.3648 33.8057 45.2667 33.3688C45.0877 32.6158 44.6026 31.8512 43.9328 31.2821C43.494 30.9085 43.2803 30.7878 41.831 30.1094C41.1324 29.7818 40.4799 29.4484 40.3702 29.3679C40.0699 29.1379 39.9313 28.8218 39.9602 28.3906C40.0006 27.7468 40.4395 27.3329 41.0862 27.3329C41.5943 27.3329 41.9292 27.6721 42.0793 28.3332L42.1486 28.6378L42.6741 28.6781C43.3323 28.7241 44.8394 28.7241 45.0184 28.6781C45.1338 28.6436 45.1454 28.6091 45.1454 28.2872C45.1396 27.3847 44.7874 26.5166 44.1696 25.9015C43.1649 24.9013 41.6116 24.4184 40.1103 24.6369Z" fill="black"/>
<path d="M71.9376 24.9703L70.9271 25.0048L70.9098 31.3281C70.904 34.806 70.9098 37.709 70.9271 37.7837L70.956 37.9102L72.4457 37.8987L73.9296 37.8814L73.9585 34.0069L73.9874 30.1324L76.4356 33.9954C78.1563 36.7087 78.9185 37.8642 79.0051 37.8872C79.0744 37.8987 79.6865 37.9044 80.3678 37.8987L81.6093 37.8814L81.6266 31.4259L81.6381 24.976H80.1946H78.7511V28.7298C78.7511 30.7993 78.7337 32.5066 78.7164 32.5238C78.6644 32.5756 78.6991 32.633 76.1007 28.7701C74.79 26.8271 73.664 25.1772 73.5947 25.1083C73.4331 24.9416 73.2367 24.9301 71.9376 24.9703Z" fill="black"/>
<path d="M45.7633 25.0163C45.7402 25.0336 45.7229 27.9136 45.7229 31.4144C45.7229 36.2834 45.7402 37.7895 45.7922 37.8412C45.8961 37.9447 48.7601 37.9389 48.8236 37.8355C48.8467 37.801 48.8814 36.887 48.8987 35.812L48.9276 33.8575L50.2556 33.823C51.5202 33.7943 51.6068 33.7828 52.0629 33.6276C53.1311 33.2654 53.8933 32.6216 54.4072 31.6444C55.0539 30.4257 55.1636 29.0345 54.7248 27.7066C54.234 26.2465 53.2582 25.3727 51.7742 25.0681C51.4047 24.9933 50.8619 24.9761 48.5638 24.9761C47.0452 24.9761 45.7806 24.9933 45.7633 25.0163ZM50.9774 28.0573C51.295 28.201 51.5837 28.5172 51.6645 28.8103C51.7569 29.1323 51.7396 29.6899 51.6356 30.006C51.5779 30.1612 51.4393 30.3797 51.3181 30.5004C50.9947 30.8223 50.654 30.9028 49.7013 30.8856L48.9276 30.8683L48.9102 29.3794L48.8987 27.8963L49.8052 27.9193C50.5674 27.9366 50.758 27.9596 50.9774 28.0573Z" fill="black"/>
<path d="M55.4063 25.0165C55.3832 25.0338 55.3658 27.9195 55.3658 31.4146C55.3658 36.7434 55.3774 37.7897 55.4467 37.8472C55.4987 37.8931 55.9664 37.9104 57.0173 37.8989L58.5128 37.8816V31.4433V25.005L56.9768 24.9878C56.1338 24.982 55.4294 24.9935 55.4063 25.0165Z" fill="black"/>
<path d="M59.3904 25.0163C59.3673 25.0335 59.35 27.9308 59.35 31.4489V37.8527L59.4828 37.8814C59.5521 37.8987 60.2334 37.9044 60.9956 37.8987L62.3814 37.8814L62.4103 34.0299L62.4391 30.1784L62.6181 30.4371C62.7163 30.5808 63.8018 32.2881 65.0317 34.2311C66.2674 36.1741 67.3125 37.8009 67.3645 37.8354C67.4338 37.8929 67.8091 37.9102 68.7734 37.9102H70.0899V31.4431V24.9761H68.6464H67.2028V28.7413C67.2028 32.0122 67.1913 32.5066 67.1162 32.5066C67.07 32.5066 67.0007 32.4491 66.9661 32.3744C66.8506 32.1617 62.1678 25.2462 62.0465 25.1025C61.931 24.9761 61.9022 24.9761 60.678 24.9761C59.9909 24.9761 59.4077 24.9933 59.3904 25.0163Z" fill="black"/>
<path d="M82.4235 25.068C82.36 25.2347 82.3831 37.6802 82.4466 37.8009C82.5043 37.9044 82.6083 37.9102 85.9688 37.9102C89.3294 37.9102 89.4333 37.9044 89.4911 37.8009C89.5603 37.6687 89.5719 35.2716 89.5026 35.1681C89.468 35.1106 88.9887 35.0934 87.5509 35.0819L85.6512 35.0647L85.6339 33.9839L85.6224 32.909H87.5163C88.9136 32.909 89.4275 32.8917 89.4795 32.84C89.5603 32.7595 89.5777 30.1152 89.5026 29.9945C89.468 29.937 88.9887 29.9198 87.5509 29.9083L85.6512 29.891L85.6339 28.8908C85.6224 28.1262 85.6397 27.879 85.6917 27.8388C85.7321 27.8158 86.604 27.7928 87.6202 27.7928C89.2601 27.7928 89.4853 27.7813 89.5142 27.7008C89.5603 27.5859 89.5603 25.183 89.5142 25.068C89.4795 24.9875 89.1157 24.9761 85.9688 24.9761C82.8219 24.9761 82.4581 24.9875 82.4235 25.068Z" fill="black"/>
<path d="M90.0223 31.4259L90.0396 37.8814L91.4832 37.8987C92.28 37.9044 92.9844 37.8987 93.0595 37.8814L93.1865 37.8527V35.8407C93.1865 34.7312 93.2038 33.8287 93.2327 33.8287C93.2558 33.8287 93.8563 34.6738 94.5665 35.7142C95.2768 36.749 95.9293 37.663 96.0101 37.7492L96.1544 37.9102H98.0772C99.336 37.9102 100 37.8929 100 37.8527C100 37.8182 99.2436 36.8352 98.3197 35.6567C97.3959 34.4841 96.6279 33.4896 96.6164 33.4551C96.5991 33.4148 96.7838 33.3171 97.1072 33.2021C98.0253 32.8745 98.7124 32.2824 99.0819 31.5006C99.6767 30.2417 99.6594 28.4022 99.0415 27.1202C98.5334 26.0568 97.5402 25.344 96.1775 25.068C95.808 24.9933 95.2594 24.9761 92.8689 24.9761H90.0107L90.0223 31.4259ZM95.6232 28.0515C95.8022 28.178 95.9235 28.3332 96.0736 28.6263C96.2642 29.0057 96.2757 29.0575 96.2757 29.6036C96.2757 30.121 96.2584 30.2072 96.1082 30.4946C95.9119 30.8798 95.6579 31.1557 95.3518 31.3166C95.144 31.4316 95.0343 31.4431 94.1681 31.4431H93.2154L93.1981 29.7186C93.1923 28.7701 93.1981 27.9595 93.2154 27.9193C93.2385 27.8618 93.4637 27.8445 94.3067 27.8618L95.3692 27.879L95.6232 28.0515Z" fill="black"/>
</svg>
