<svg width="21" height="21" viewBox="0 0 21 21" fill="none" xmlns="http://www.w3.org/2000/svg">
<path d="M9.18934 10.8739L3.45605 16.3656V5.3906L9.18934 10.8739ZM10.0894 10.0073L12.8644 7.34892L6.12268 3.64892C5.86435 3.48225 5.53102 3.39893 5.18935 3.39893C4.64768 3.39893 4.14767 3.64058 3.82267 4.01558L10.081 10.0073H10.0894ZM10.0894 11.7406L3.81438 17.7489C4.13938 18.1406 4.63102 18.3989 5.18935 18.3989C5.53102 18.3989 5.82269 18.3156 6.08102 18.1489L12.906 14.4323L10.0894 11.7323V11.7406ZM16.6477 9.42394L14.0144 7.98226L10.9894 10.8739L14.056 13.8073L16.6811 12.3739C17.2311 12.0906 17.6144 11.5156 17.6144 10.8989C17.5727 10.2823 17.1893 9.70727 16.6393 9.42394H16.6477Z" fill="#34C759"/>
</svg>
