<svg width="36" height="36" viewBox="0 0 36 36" fill="none" xmlns="http://www.w3.org/2000/svg">
<path d="M33.0503 22.9497C35.7839 20.2161 35.7839 15.7839 33.0503 13.0503L22.9497 2.94974C20.2161 0.216073 15.7839 0.216077 13.0503 2.94975L2.94974 13.0503C0.216073 15.7839 0.216077 20.2161 2.94975 22.9497L13.0503 33.0503C15.7839 35.7839 20.2161 35.7839 22.9497 33.0503L33.0503 22.9497ZM14.6866 14.6853C16.5166 12.8557 19.4836 12.8561 21.3134 14.6859C23.1436 16.516 23.1437 19.4835 21.3134 21.3135C19.4834 23.1431 16.5164 23.1427 14.6866 21.3128C12.8565 19.4828 12.8563 16.5153 14.6866 14.6853Z" fill="#007AFF"/>
</svg>
