<svg width="653" height="51" viewBox="0 0 653 51" fill="none" xmlns="http://www.w3.org/2000/svg">
<path d="M32.0372 28.064C32.0372 28.928 32.2892 29.612 32.7932 30.116C33.3332 30.584 34.0892 30.818 35.0612 30.818H36.5192C36.8792 30.818 37.0592 32.06 37.0592 34.544C37.0592 36.848 36.8792 38 36.5192 38H35.2772C33.8012 38 32.7212 37.748 32.0372 37.244C31.9292 39.908 31.2272 42.266 29.9312 44.318C28.6352 46.406 26.8532 48.026 24.5852 49.178C22.3532 50.33 19.7792 50.906 16.8632 50.906H14.7032C10.0232 50.906 6.40517 49.556 3.84917 46.856C1.32917 44.192 0.069172 40.448 0.069172 35.624V24.824H6.92717V35.462C6.92717 38.198 7.55717 40.25 8.81717 41.618C10.0772 43.022 12.0392 43.724 14.7032 43.724H16.8632C19.4552 43.724 21.4892 43.04 22.9652 41.672C24.4412 40.304 25.1792 38.414 25.1792 36.002V19.424H32.0372V28.064ZM11.1932 18.614V12.458H18.5372V18.614H11.1932ZM50.8393 30.818C51.9553 30.818 52.8013 30.638 53.3773 30.278C53.9893 29.918 54.2953 29.414 54.2953 28.766C54.2953 28.154 54.1513 27.614 53.8633 27.146C53.6113 26.678 53.1793 26.138 52.5673 25.526L40.8493 14.078V8.462L61.3153 0.577999L63.2593 7.274L49.3273 12.512L57.7513 20.882C59.0113 22.178 59.9293 23.51 60.5053 24.878C61.1173 26.21 61.4233 27.65 61.4233 29.198C61.4233 31.826 60.5053 33.95 58.6693 35.57C56.8693 37.19 54.3313 38 51.0553 38H36.5293C36.1693 38 35.9893 36.848 35.9893 34.544C35.9893 32.06 36.1693 30.818 36.5293 30.818H50.8393ZM80.8025 30.818C81.7025 30.818 82.4225 30.638 82.9625 30.278C83.5025 29.918 83.7725 29.414 83.7725 28.766C83.7725 28.298 83.5385 27.434 83.0705 26.174C82.6385 24.878 81.5765 21.98 79.8845 17.48L78.1565 12.836L84.5285 9.812L90.7925 27.308C91.2245 28.568 91.7105 29.468 92.2505 30.008C92.8265 30.548 93.5825 30.818 94.5185 30.818H95.9225C96.2825 30.818 96.4625 32.06 96.4625 34.544C96.4625 36.02 96.4085 36.974 96.3005 37.406C96.1925 37.802 96.0665 38 95.9225 38H94.1945C92.6105 38 91.2785 37.784 90.1985 37.352C89.1185 36.884 88.2365 36.146 87.5525 35.138C86.8685 36.146 85.9865 36.884 84.9065 37.352C83.8625 37.784 82.5665 38 81.0185 38H68.7065L68.1665 30.818H80.8025ZM109.084 30.818C109.948 30.818 110.65 30.584 111.19 30.116C111.766 29.612 112.054 28.928 112.054 28.064V19.424H118.912V28.388C118.912 31.376 118.012 33.734 116.212 35.462C114.448 37.154 112.054 38 109.03 38H95.9082C95.5482 38 95.3682 36.848 95.3682 34.544C95.3682 32.06 95.5482 30.818 95.9082 30.818H109.084ZM111.676 43.616V49.772H96.4482V43.616H111.676ZM120.785 43.724C123.269 43.724 125.195 43.04 126.563 41.672C127.931 40.34 128.615 38.45 128.615 36.002V19.424H135.473V27.578C135.473 28.694 135.743 29.522 136.283 30.062C136.859 30.566 137.759 30.818 138.983 30.818H139.955C140.315 30.818 140.495 32.06 140.495 34.544C140.495 36.848 140.315 38 139.955 38H139.091C138.335 38 137.633 37.91 136.985 37.73C136.337 37.514 135.833 37.226 135.473 36.866C135.365 39.566 134.699 41.978 133.475 44.102C132.287 46.226 130.613 47.882 128.453 49.07C126.293 50.294 123.773 50.906 120.893 50.906H119.165L118.571 43.724H120.785ZM143.937 30.818C146.673 30.818 148.923 30.638 150.687 30.278C152.487 29.918 154.341 29.198 156.249 28.118L161.271 25.256C160.911 23.888 160.371 22.97 159.651 22.502C158.967 21.998 157.923 21.746 156.519 21.746H144.153L144.963 14.618H157.815C160.083 14.618 161.919 15.014 163.323 15.806C164.727 16.562 165.897 17.876 166.833 19.748C167.805 21.584 168.669 24.176 169.425 27.524L158.895 34.058C156.447 35.57 154.107 36.614 151.875 37.19C149.643 37.73 146.889 38 143.613 38H139.941C139.581 38 139.401 36.848 139.401 34.544C139.401 32.06 139.581 30.818 139.941 30.818H143.937ZM150.525 9.164V3.008H157.869V9.164H150.525ZM208.559 35.732C208.559 40.448 207.299 44.156 204.779 46.856C202.295 49.556 198.875 50.906 194.519 50.906H187.121L186.527 43.724H194.951C197.075 43.724 198.731 43.202 199.919 42.158C201.107 41.15 201.701 39.764 201.701 38H197.921C194.033 38 191.243 37.19 189.551 35.57C187.895 33.95 187.067 31.376 187.067 27.848C187.067 25.544 187.517 23.492 188.417 21.692C189.317 19.892 190.577 18.488 192.197 17.48C193.853 16.472 195.761 15.968 197.921 15.968C201.233 15.968 203.825 17.048 205.697 19.208C207.605 21.368 208.559 24.356 208.559 28.172V35.732ZM193.871 27.578C193.871 28.73 194.177 29.576 194.789 30.116C195.437 30.62 196.571 30.872 198.191 30.872H201.701V28.064C201.701 26.336 201.359 25.022 200.675 24.122C199.991 23.222 199.001 22.772 197.705 22.772C196.481 22.772 195.527 23.222 194.843 24.122C194.195 24.986 193.871 26.138 193.871 27.578ZM259.691 28.064C259.691 28.928 259.943 29.612 260.447 30.116C260.987 30.584 261.743 30.818 262.715 30.818H264.173C264.533 30.818 264.713 32.06 264.713 34.544C264.713 36.848 264.533 38 264.173 38H262.931C261.455 38 260.375 37.748 259.691 37.244C259.583 39.908 258.881 42.266 257.585 44.318C256.289 46.406 254.507 48.026 252.239 49.178C250.007 50.33 247.433 50.906 244.517 50.906H242.357C237.677 50.906 234.059 49.556 231.503 46.856C228.983 44.192 227.723 40.448 227.723 35.624V24.824H234.581V35.462C234.581 38.198 235.211 40.25 236.471 41.618C237.731 43.022 239.693 43.724 242.357 43.724H244.517C247.109 43.724 249.143 43.04 250.619 41.672C252.095 40.304 252.833 38.414 252.833 36.002V19.424H259.691V28.064ZM238.847 18.614V12.458H246.191V18.614H238.847ZM278.494 30.818C279.61 30.818 280.456 30.638 281.032 30.278C281.644 29.918 281.95 29.414 281.95 28.766C281.95 28.154 281.806 27.614 281.518 27.146C281.266 26.678 280.834 26.138 280.222 25.526L268.504 14.078V8.462L288.97 0.577999L290.914 7.274L276.982 12.512L285.406 20.882C286.666 22.178 287.584 23.51 288.16 24.878C288.772 26.21 289.078 27.65 289.078 29.198C289.078 31.826 288.16 33.95 286.324 35.57C284.524 37.19 281.986 38 278.71 38H264.184C263.824 38 263.644 36.848 263.644 34.544C263.644 32.06 263.824 30.818 264.184 30.818H278.494ZM337.007 30.818C337.907 30.818 338.627 30.566 339.167 30.062C339.743 29.558 340.031 28.892 340.031 28.064V19.424H346.889V28.442C346.889 31.43 346.007 33.77 344.243 35.462C342.479 37.154 340.085 38 337.061 38H319.295C316.055 38 313.571 37.154 311.843 35.462C310.115 33.734 309.251 31.268 309.251 28.064V19.424H316.109V27.146C316.109 28.37 316.379 29.288 316.919 29.9C317.495 30.512 318.395 30.818 319.619 30.818H337.007ZM324.425 49.772V43.616H331.769V49.772H324.425ZM365.792 30.818C365.972 30.818 366.098 31.052 366.17 31.52C366.278 31.988 366.332 32.996 366.332 34.544C366.332 35.984 366.278 36.92 366.17 37.352C366.098 37.784 365.972 38 365.792 38H363.848C360.824 38 358.52 37.136 356.936 35.408C355.388 33.644 354.614 31.142 354.614 27.902V3.224H361.526V27.416C361.526 28.568 361.742 29.432 362.174 30.008C362.642 30.548 363.362 30.818 364.334 30.818H365.792ZM383.677 14.618C385.909 14.618 387.727 14.996 389.131 15.752C390.535 16.508 391.705 17.786 392.641 19.586C393.577 21.35 394.423 23.888 395.179 27.2L391.777 29.36C392.101 29.828 392.623 30.188 393.343 30.44C394.063 30.692 394.909 30.818 395.881 30.818H399.121C399.481 30.818 399.661 32.06 399.661 34.544C399.661 36.02 399.607 36.974 399.499 37.406C399.391 37.802 399.265 38 399.121 38H395.503C393.487 38 391.795 37.604 390.427 36.812C389.095 36.02 387.889 34.67 386.809 32.762L384.757 34.058C382.309 35.57 379.969 36.614 377.737 37.19C375.505 37.73 372.751 38 369.475 38H365.803C365.443 38 365.263 36.848 365.263 34.544C365.263 32.06 365.443 30.818 365.803 30.818H369.799C372.535 30.818 374.785 30.638 376.549 30.278C378.349 29.918 380.203 29.198 382.111 28.118L387.133 25.256C386.773 23.888 386.233 22.97 385.513 22.502C384.829 21.998 383.785 21.746 382.381 21.746H370.015L370.825 14.618H383.677ZM376.387 9.164V3.008H383.731V9.164H376.387ZM409.013 30.818C409.913 30.818 410.633 30.584 411.173 30.116C411.713 29.612 411.983 28.928 411.983 28.064V19.424H418.895V27.848C418.895 29.828 419.903 30.818 421.919 30.818H423.917C424.277 30.818 424.457 32.024 424.457 34.436C424.457 36.812 424.277 38 423.917 38H421.595C418.499 38 416.447 37.136 415.439 35.408C414.791 36.308 413.927 36.974 412.847 37.406C411.803 37.802 410.525 38 409.013 38H399.131C398.771 38 398.591 36.848 398.591 34.544C398.591 32.06 398.771 30.818 399.131 30.818H409.013ZM418.787 7.652V13.808H403.559V7.652H418.787ZM439.09 28.388C439.09 31.376 438.19 33.734 436.39 35.462C434.626 37.154 432.232 38 429.208 38H423.916C423.556 38 423.376 36.848 423.376 34.544C423.376 32.06 423.556 30.818 423.916 30.818H429.208C430.108 30.818 430.828 30.584 431.368 30.116C431.944 29.612 432.232 28.928 432.232 28.064V19.424H439.09V28.388ZM429.64 13.808V7.652H436.984V13.808H429.64ZM446.793 3.224H453.705V38H446.793V3.224ZM511.268 30.818C511.628 30.818 511.808 32.06 511.808 34.544C511.808 36.848 511.628 38 511.268 38H506.516C506.768 38.288 506.894 38.846 506.894 39.674C506.894 41.87 506.264 43.814 505.004 45.506C503.744 47.198 501.998 48.512 499.766 49.448C497.534 50.42 494.96 50.906 492.044 50.906H487.994C483.314 50.906 479.696 49.556 477.14 46.856C474.62 44.192 473.36 40.448 473.36 35.624V24.824H480.218V35.462C480.218 38.198 480.848 40.25 482.108 41.618C483.368 43.022 485.33 43.724 487.994 43.724H492.152C497.408 43.724 500.036 42.374 500.036 39.674C500.036 38.918 499.838 38.378 499.442 38.054C499.046 37.766 498.398 37.622 497.498 37.622H488.048L488.696 30.818H511.268ZM517.508 30.818C518.408 30.818 519.128 30.584 519.668 30.116C520.244 29.612 520.532 28.928 520.532 28.064V19.424H527.39V27.848C527.39 29.828 528.398 30.818 530.414 30.818H532.466C532.826 30.818 533.006 32.024 533.006 34.436C533.006 36.812 532.826 38 532.466 38H530.09C527.066 38 525.014 37.136 523.934 35.408C523.286 36.308 522.422 36.974 521.342 37.406C520.298 37.802 519.02 38 517.508 38H511.244C510.884 38 510.704 36.848 510.704 34.544C510.704 32.06 510.884 30.818 511.244 30.818H517.508ZM527.66 7.652V13.808H512.432V7.652H527.66ZM536.439 30.818C539.175 30.818 541.425 30.638 543.189 30.278C544.989 29.918 546.843 29.198 548.751 28.118L553.773 25.256C553.413 23.888 552.873 22.97 552.153 22.502C551.469 21.998 550.425 21.746 549.021 21.746H536.655L537.465 14.618H550.317C552.585 14.618 554.421 15.014 555.825 15.806C557.229 16.562 558.399 17.876 559.335 19.748C560.307 21.584 561.171 24.176 561.927 27.524L551.397 34.058C548.949 35.57 546.609 36.614 544.377 37.19C542.145 37.73 539.391 38 536.115 38H532.443C532.083 38 531.903 36.848 531.903 34.544C531.903 32.06 532.083 30.818 532.443 30.818H536.439ZM568.083 3.224H574.995V38H568.083V3.224ZM592.153 36.002C592.153 38.954 591.559 41.546 590.371 43.778C589.183 46.046 587.473 47.792 585.241 49.016C583.045 50.276 580.489 50.906 577.573 50.906H573.037L572.443 43.724H577.465C579.949 43.724 581.875 43.04 583.243 41.672C584.611 40.34 585.295 38.45 585.295 36.002V19.424H592.153V36.002ZM632.751 27.092C632.751 28.388 632.985 29.342 633.453 29.954C633.921 30.53 634.623 30.818 635.559 30.818H637.233C637.413 30.818 637.539 31.052 637.611 31.52C637.719 31.988 637.773 32.996 637.773 34.544C637.773 35.984 637.719 36.92 637.611 37.352C637.539 37.784 637.413 38 637.233 38H635.505C633.561 38 631.941 37.676 630.645 37.028C629.385 36.344 628.503 35.246 627.999 33.734C627.243 34.382 626.253 34.868 625.029 35.192C623.841 35.48 622.599 35.624 621.303 35.624C618.063 35.624 615.579 34.742 613.851 32.978C612.159 31.178 611.313 28.514 611.313 24.986C611.313 22.97 611.763 21.098 612.663 19.37C613.599 17.606 614.895 16.202 616.551 15.158C618.243 14.078 620.169 13.538 622.329 13.538H625.893V10.028H632.751V27.092ZM618.117 24.932C618.117 26.12 618.387 27.02 618.927 27.632C619.503 28.208 620.421 28.496 621.681 28.496C623.049 28.496 624.093 28.262 624.813 27.794C625.569 27.29 625.947 26.588 625.947 25.688V20.396H622.437C619.557 20.396 618.117 21.908 618.117 24.932ZM652.401 28.388C652.401 31.376 651.501 33.734 649.701 35.462C647.937 37.154 645.543 38 642.519 38H637.227C636.867 38 636.687 36.848 636.687 34.544C636.687 32.06 636.867 30.818 637.227 30.818H642.519C643.419 30.818 644.139 30.584 644.679 30.116C645.255 29.612 645.543 28.928 645.543 28.064V19.424H652.401V28.388ZM637.875 49.772V43.616H645.219V49.772H637.875Z" fill="#1C1C1E"/>
</svg>
