<svg width="605" height="59" viewBox="0 0 605 59" fill="none" xmlns="http://www.w3.org/2000/svg">
<path d="M32.8692 28.064C32.8692 28.928 33.1212 29.612 33.6252 30.116C34.1652 30.584 34.9212 30.818 35.8932 30.818H37.3512C37.7112 30.818 37.8912 32.06 37.8912 34.544C37.8912 36.848 37.7112 38 37.3512 38H36.1092C34.6332 38 33.5532 37.748 32.8692 37.244C32.7612 39.908 32.0592 42.266 30.7632 44.318C29.4672 46.406 27.6852 48.026 25.4172 49.178C23.1852 50.33 20.6112 50.906 17.6952 50.906H15.5352C10.8552 50.906 7.2372 49.556 4.6812 46.856C2.1612 44.192 0.901203 40.448 0.901203 35.624V24.824H7.7592V35.462C7.7592 38.198 8.3892 40.25 9.6492 41.618C10.9092 43.022 12.8712 43.724 15.5352 43.724H17.6952C20.2872 43.724 22.3212 43.04 23.7972 41.672C25.2732 40.304 26.0112 38.414 26.0112 36.002V19.424H32.8692V28.064ZM12.0252 18.614V12.458H19.3692V18.614H12.0252ZM51.6713 30.818C52.7873 30.818 53.6333 30.638 54.2093 30.278C54.8213 29.918 55.1273 29.414 55.1273 28.766C55.1273 28.154 54.9833 27.614 54.6953 27.146C54.4433 26.678 54.0113 26.138 53.3993 25.526L41.6813 14.078V8.462L62.1473 0.577999L64.0913 7.274L50.1593 12.512L58.5833 20.882C59.8433 22.178 60.7613 23.51 61.3373 24.878C61.9493 26.21 62.2553 27.65 62.2553 29.198C62.2553 31.826 61.3373 33.95 59.5013 35.57C57.7013 37.19 55.1633 38 51.8873 38H37.3613C37.0013 38 36.8213 36.848 36.8213 34.544C36.8213 32.06 37.0013 30.818 37.3613 30.818H51.6713ZM82.9145 3.224H89.8265V38H82.9145V3.224ZM108.687 30.818C109.587 30.818 110.307 30.638 110.847 30.278C111.387 29.918 111.657 29.414 111.657 28.766C111.657 28.298 111.423 27.434 110.955 26.174C110.523 24.878 109.461 21.98 107.769 17.48L106.041 12.836L112.413 9.812L118.677 27.308C119.109 28.568 119.595 29.468 120.135 30.008C120.711 30.548 121.467 30.818 122.403 30.818H123.807C124.167 30.818 124.347 32.06 124.347 34.544C124.347 36.02 124.293 36.974 124.185 37.406C124.077 37.802 123.951 38 123.807 38H122.079C120.495 38 119.163 37.784 118.083 37.352C117.003 36.884 116.121 36.146 115.437 35.138C114.753 36.146 113.871 36.884 112.791 37.352C111.747 37.784 110.451 38 108.903 38H96.5913L96.0513 30.818H108.687ZM133.675 30.818C134.575 30.818 135.295 30.584 135.835 30.116C136.375 29.612 136.645 28.928 136.645 28.064V19.424H143.557V27.848C143.557 29.828 144.565 30.818 146.581 30.818H148.579C148.939 30.818 149.119 32.024 149.119 34.436C149.119 36.812 148.939 38 148.579 38H146.257C143.161 38 141.109 37.136 140.101 35.408C139.453 36.308 138.589 36.974 137.509 37.406C136.465 37.802 135.187 38 133.675 38H123.793C123.433 38 123.253 36.848 123.253 34.544C123.253 32.06 123.433 30.818 123.793 30.818H133.675ZM137.887 43.616V49.772H122.659V43.616H137.887ZM163.752 28.388C163.752 31.376 162.852 33.734 161.052 35.462C159.288 37.154 156.894 38 153.87 38H148.578C148.218 38 148.038 36.848 148.038 34.544C148.038 32.06 148.218 30.818 148.578 30.818H153.87C154.77 30.818 155.49 30.584 156.03 30.116C156.606 29.612 156.894 28.928 156.894 28.064V19.424H163.752V28.388ZM160.512 43.616V49.772H145.284V43.616H160.512ZM149.82 58.25V52.364H155.976V58.25H149.82ZM210.644 30.818C211.544 30.818 212.264 30.566 212.804 30.062C213.38 29.558 213.668 28.892 213.668 28.064V19.424H220.526V28.442C220.526 31.43 219.644 33.77 217.88 35.462C216.116 37.154 213.722 38 210.698 38H192.932C189.692 38 187.208 37.154 185.48 35.462C183.752 33.734 182.888 31.268 182.888 28.064V19.424H189.746V27.146C189.746 28.37 190.016 29.288 190.556 29.9C191.132 30.512 192.032 30.818 193.256 30.818H210.644ZM209.348 9.542V15.698H194.12V9.542H209.348ZM248.122 21.044C249.454 22.592 250.39 23.996 250.93 25.256C251.47 26.516 251.74 27.848 251.74 29.252C251.74 31.808 250.822 33.914 248.986 35.57C247.186 37.19 244.666 38 241.426 38H226.792L226.252 30.818H241.102C242.218 30.818 243.082 30.638 243.694 30.278C244.306 29.918 244.612 29.414 244.612 28.766C244.612 28.298 244.486 27.848 244.234 27.416C243.982 26.948 243.514 26.318 242.83 25.526L233.542 14.618L238.51 9.704L248.122 21.044ZM284.635 30.818C284.995 30.818 285.175 32.06 285.175 34.544C285.175 36.848 284.995 38 284.635 38H280.369C280.009 42.032 278.587 45.182 276.103 47.45C273.619 49.754 270.397 50.906 266.437 50.906H259.039L258.445 43.724H266.869C268.993 43.724 270.649 43.202 271.837 42.158C273.025 41.15 273.619 39.764 273.619 38H269.839C265.951 38 263.161 37.19 261.469 35.57C259.813 33.95 258.985 31.376 258.985 27.848C258.985 25.544 259.435 23.492 260.335 21.692C261.235 19.892 262.495 18.488 264.115 17.48C265.771 16.472 267.679 15.968 269.839 15.968C273.151 15.968 275.743 17.048 277.615 19.208C279.523 21.368 280.477 24.356 280.477 28.172V30.818H284.635ZM265.789 27.578C265.789 28.73 266.095 29.576 266.707 30.116C267.355 30.62 268.489 30.872 270.109 30.872H273.619V28.064C273.619 26.336 273.277 25.022 272.593 24.122C271.909 23.222 270.919 22.772 269.623 22.772C268.399 22.772 267.445 23.222 266.761 24.122C266.113 24.986 265.789 26.138 265.789 27.578ZM288.629 30.818C291.365 30.818 293.615 30.638 295.379 30.278C297.179 29.918 299.033 29.198 300.941 28.118L305.963 25.256C305.603 23.888 305.063 22.97 304.343 22.502C303.659 21.998 302.615 21.746 301.211 21.746H288.845L289.655 14.618H302.507C304.775 14.618 306.611 15.014 308.015 15.806C309.419 16.562 310.589 17.876 311.525 19.748C312.497 21.584 313.361 24.176 314.117 27.524L303.587 34.058C301.139 35.57 298.799 36.614 296.567 37.19C294.335 37.73 291.581 38 288.305 38H284.633C284.273 38 284.093 36.848 284.093 34.544C284.093 32.06 284.273 30.818 284.633 30.818H288.629ZM295.217 9.164V3.008H302.561V9.164H295.217ZM501.164 38C497.924 38 495.44 37.154 493.712 35.462C491.984 33.734 491.12 31.268 491.12 28.064V19.424H497.978V27.146C497.978 28.37 498.248 29.288 498.788 29.9C499.364 30.512 500.264 30.818 501.488 30.818H519.47C520.586 30.818 521.45 30.638 522.062 30.278C522.674 29.918 522.98 29.414 522.98 28.766C522.98 28.19 522.836 27.668 522.548 27.2C522.296 26.732 521.846 26.174 521.198 25.526L509.48 14.078V8.462L529.946 0.577999L531.89 7.274L517.958 12.512L526.382 20.882C529.514 24.014 531.836 26.246 533.348 27.578C534.896 28.91 536.138 29.792 537.074 30.224C538.01 30.62 539.108 30.818 540.368 30.818C540.728 30.818 540.908 32.06 540.908 34.544C540.908 36.848 540.728 38 540.368 38C538.532 38 537.038 37.874 535.886 37.622C534.77 37.37 533.708 36.92 532.7 36.272C531.692 35.588 530.486 34.526 529.082 33.086C528.47 34.634 527.336 35.84 525.68 36.704C524.024 37.568 522.026 38 519.686 38H501.164ZM546.606 30.818C547.506 30.818 548.226 30.584 548.766 30.116C549.342 29.612 549.63 28.928 549.63 28.064V19.424H556.488V27.848C556.488 29.828 557.496 30.818 559.512 30.818H561.564C561.924 30.818 562.104 32.024 562.104 34.436C562.104 36.812 561.924 38 561.564 38H559.188C556.164 38 554.112 37.136 553.032 35.408C552.384 36.308 551.52 36.974 550.44 37.406C549.396 37.802 548.118 38 546.606 38H540.342C539.982 38 539.802 36.848 539.802 34.544C539.802 32.06 539.982 30.818 540.342 30.818H546.606ZM542.07 49.772V43.616H549.414V49.772H542.07ZM565.699 30.818C566.923 30.818 567.841 30.53 568.453 29.954C569.101 29.378 569.425 28.586 569.425 27.578V19.424H576.283V27.578C576.283 29.738 577.525 30.818 580.009 30.818C581.233 30.818 582.151 30.53 582.763 29.954C583.411 29.378 583.735 28.586 583.735 27.578V19.424H590.593V27.578C590.593 29.738 591.745 30.818 594.049 30.818C596.353 30.818 597.505 29.738 597.505 27.578V19.424H604.363V27.632C604.363 30.908 603.445 33.464 601.609 35.3C599.809 37.1 597.289 38 594.049 38C592.141 38 590.611 37.766 589.459 37.298C588.307 36.794 587.443 36.074 586.867 35.138C586.183 36.074 585.283 36.794 584.167 37.298C583.087 37.766 581.701 38 580.009 38C578.029 38 576.445 37.766 575.257 37.298C574.069 36.794 573.187 36.074 572.611 35.138C571.207 37.046 568.903 38 565.699 38H561.541C561.181 38 561.001 36.848 561.001 34.544C561.001 32.06 561.181 30.818 561.541 30.818H565.699Z" fill="#1C1C1E"/>
<path d="M369.612 30.818C369.972 30.818 370.152 32.06 370.152 34.544C370.152 36.848 369.972 38 369.612 38H364.86C365.112 38.288 365.238 38.846 365.238 39.674C365.238 41.87 364.608 43.814 363.348 45.506C362.088 47.198 360.342 48.512 358.11 49.448C355.878 50.42 353.304 50.906 350.388 50.906H346.338C341.658 50.906 338.04 49.556 335.484 46.856C332.964 44.192 331.704 40.448 331.704 35.624V24.824H338.562V35.462C338.562 38.198 339.192 40.25 340.452 41.618C341.712 43.022 343.674 43.724 346.338 43.724H350.496C355.752 43.724 358.38 42.374 358.38 39.674C358.38 38.918 358.182 38.378 357.786 38.054C357.39 37.766 356.742 37.622 355.842 37.622H346.392L347.04 30.818H369.612ZM374.502 30.818C376.23 30.818 377.4 30.836 378.012 30.872C378.66 30.872 379.092 30.872 379.308 30.872L373.26 22.016L376.608 15.59H390C392.448 15.59 394.392 16.148 395.832 17.264C397.272 18.38 397.992 20 397.992 22.124C397.992 23.636 397.632 25.04 396.912 26.336C396.228 27.596 394.914 29.144 392.97 30.98C393.51 30.872 394.554 30.818 396.102 30.818H402.15C402.33 30.818 402.456 31.052 402.528 31.52C402.636 31.988 402.69 32.996 402.69 34.544C402.69 35.984 402.636 36.92 402.528 37.352C402.456 37.784 402.33 38 402.15 38H396.21C393.042 38 390.738 37.838 389.298 37.514C387.858 37.19 386.598 36.56 385.518 35.624C384.114 36.524 382.548 37.154 380.82 37.514C379.092 37.838 376.842 38 374.07 38H369.588C369.228 38 369.048 36.848 369.048 34.544C369.048 32.06 369.228 30.818 369.588 30.818H374.502ZM391.404 23.744C391.404 23.24 391.206 22.862 390.81 22.61C390.414 22.322 389.856 22.178 389.136 22.178H380.928L386.058 29.792C388.146 27.956 389.55 26.624 390.27 25.796C391.026 24.968 391.404 24.284 391.404 23.744ZM409.901 30.818C408.605 30.026 407.633 29.108 406.985 28.064C406.373 26.984 406.067 25.688 406.067 24.176C406.067 22.16 406.535 20.324 407.471 18.668C408.407 17.012 409.703 15.716 411.359 14.78C413.015 13.808 414.887 13.322 416.975 13.322C420.503 13.322 423.221 14.384 425.129 16.508C427.073 18.632 428.045 21.566 428.045 25.31V27.146C428.045 30.782 426.803 33.5 424.319 35.3C421.871 37.1 418.235 38 413.411 38H402.125C401.765 38 401.585 36.848 401.585 34.544C401.585 32.06 401.765 30.818 402.125 30.818H408.281H409.901ZM419.999 30.278C420.827 29.414 421.241 28.118 421.241 26.39V25.58C421.241 21.98 419.801 20.18 416.921 20.18C415.805 20.18 414.851 20.576 414.059 21.368C413.303 22.124 412.925 23.06 412.925 24.176C412.925 25.472 413.447 26.588 414.491 27.524C415.535 28.424 417.371 29.342 419.999 30.278ZM424.373 2.252V8.408H409.145V2.252H424.373ZM435.76 3.224H442.672V38H435.76V3.224ZM471.955 35.732C471.955 40.448 470.695 44.156 468.175 46.856C465.691 49.556 462.271 50.906 457.915 50.906H450.517L449.923 43.724H458.347C460.471 43.724 462.127 43.202 463.315 42.158C464.503 41.15 465.097 39.764 465.097 38H461.317C457.429 38 454.639 37.19 452.947 35.57C451.291 33.95 450.463 31.376 450.463 27.848C450.463 25.544 450.913 23.492 451.813 21.692C452.713 19.892 453.973 18.488 455.593 17.48C457.249 16.472 459.157 15.968 461.317 15.968C464.629 15.968 467.221 17.048 469.093 19.208C471.001 21.368 471.955 24.356 471.955 28.172V35.732ZM457.267 27.578C457.267 28.73 457.573 29.576 458.185 30.116C458.833 30.62 459.967 30.872 461.587 30.872H465.097V28.064C465.097 26.336 464.755 25.022 464.071 24.122C463.387 23.222 462.397 22.772 461.101 22.772C459.877 22.772 458.923 23.222 458.239 24.122C457.591 24.986 457.267 26.138 457.267 27.578Z" fill="#007AFF"/>
</svg>
